<?xml version="1.0" encoding="utf-8"?>
<COLLADA xmlns="http://www.collada.org/2005/11/COLLADASchema" version="1.4.1">
  <asset>
    <contributor>
      <authoring_tool>Fusion URDF/XACRO Exporter</authoring_tool>
    </contributor>
    <created>2026-09-02T15:15:14Z</created>
    <modified>2026-09-02T15:15:14Z</modified>
    <unit name="meter" meter="1.0"/>
    <up_axis>Z_UP</up_axis>
  </asset>
  <library_effects>
    <effect id="mat_00_Body1__Plastic_-_Glossy__Black_-effect">
      <profile_COMMON>
        <technique sid="common">
          <lambert>
            <emission><color>0 0 0 1</color></emission>
            <ambient><color>0.0000 0.0000 0.0000 1</color></ambient>
            <diffuse><color>0.0980 0.0980 0.0980 1</color></diffuse>
            <reflective><color>0 0 0 1</color></reflective>
            <transparent opaque="A_ONE"><color>1 1 1 1</color></transparent>
            <transparency><float>1</float></transparency>
          </lambert>
        </technique>
      </profile_COMMON>
    </effect>
  </library_effects>
  <library_materials>
    <material id="mat_00_Body1__Plastic_-_Glossy__Black_" name="00_Body1__Plastic_-_Glossy_(Black)">
      <instance_effect url="#mat_00_Body1__Plastic_-_Glossy__Black_-effect"/>
    </material>
  </library_materials>
  <library_geometries>
    <geometry id="base_link-mesh" name="base_link">
      <mesh>
        <source id="base_link-mesh-positions">
          <float_array id="base_link-mesh-positions-array" count="2106">-0.017700 0.060000 0.020000 -0.017778 0.060000 0.020595 -0.018008 0.060000 0.021150 -0.018374 0.060000 0.021626 -0.018850 0.060000 0.021992 -0.019405 0.060000 0.022222 -0.020000 0.060000 0.022300 -0.020595 0.060000 0.022222 -0.021150 0.060000 0.021992 -0.021626 0.060000 0.021626 -0.021992 0.060000 0.021150 -0.022222 0.060000 0.020595 -0.022300 0.060000 0.020000 -0.022222 0.060000 0.019405 -0.021992 0.060000 0.018850 -0.021626 0.060000 0.018374 -0.021150 0.060000 0.018008 -0.020595 0.060000 0.017778 -0.020000 0.060000 0.017700 -0.019405 0.060000 0.017778 -0.018850 0.060000 0.018008 -0.018374 0.060000 0.018374 -0.018008 0.060000 0.018850 -0.017778 0.060000 0.019405 -0.017700 0.025000 0.020000 -0.017778 0.025000 0.019405 -0.018008 0.025000 0.018850 -0.018374 0.025000 0.018374 -0.018850 0.025000 0.018008 -0.019405 0.025000 0.017778 -0.020000 0.025000 0.017700 -0.020595 0.025000 0.017778 -0.021150 0.025000 0.018008 -0.021626 0.025000 0.018374 -0.021992 0.025000 0.018850 -0.022222 0.025000 0.019405 -0.022300 0.025000 0.020000 -0.022222 0.025000 0.020595 -0.021992 0.025000 0.021150 -0.021626 0.025000 0.021626 -0.021150 0.025000 0.021992 -0.020595 0.025000 0.022222 -0.020000 0.025000 0.022300 -0.019405 0.025000 0.022222 -0.018850 0.025000 0.021992 -0.018374 0.025000 0.021626 -0.018008 0.025000 0.021150 -0.017778 0.025000 0.020595 -0.017700 0.048333 0.020000 -0.017700 0.036667 0.020000 -0.017778 0.048333 0.020595 -0.017778 0.036667 0.020595 -0.018008 0.048333 0.021150 -0.018008 0.036667 0.021150 -0.018374 0.048333 0.021626 -0.018374 0.036667 0.021626 -0.018850 0.048333 0.021992 -0.018850 0.036667 0.021992 -0.019405 0.048333 0.022222 -0.019405 0.036667 0.022222 -0.020000 0.048333 0.022300 -0.020000 0.036667 0.022300 -0.020595 0.048333 0.022222 -0.020595 0.036667 0.022222 -0.021150 0.048333 0.021992 -0.021150 0.036667 0.021992 -0.021626 0.048333 0.021626 -0.021626 0.036667 0.021626 -0.021992 0.048333 0.021150 -0.021992 0.036667 0.021150 -0.022222 0.048333 0.020595 -0.022222 0.036667 0.020595 -0.022300 0.048333 0.020000 -0.022300 0.036667 0.020000 -0.022222 0.048333 0.019405 -0.022222 0.036667 0.019405 -0.021992 0.048333 0.018850 -0.021992 0.036667 0.018850 -0.021626 0.048333 0.018374 -0.021626 0.036667 0.018374 -0.021150 0.048333 0.018008 -0.021150 0.036667 0.018008 -0.020595 0.048333 0.017778 -0.020595 0.036667 0.017778 -0.020000 0.048333 0.017700 -0.020000 0.036667 0.017700 -0.019405 0.048333 0.017778 -0.019405 0.036667 0.017778 -0.018850 0.048333 0.018008 -0.018850 0.036667 0.018008 -0.018374 0.048333 0.018374 -0.018374 0.036667 0.018374 -0.018008 0.048333 0.018850 -0.018008 0.036667 0.018850 -0.017778 0.048333 0.019405 -0.017778 0.036667 0.019405 0.132300 0.060000 0.020000 0.132222 0.060000 0.020595 0.131992 0.060000 0.021150 0.131626 0.060000 0.021626 0.131150 0.060000 0.021992 0.130595 0.060000 0.022222 0.130000 0.060000 0.022300 0.129405 0.060000 0.022222 0.128850 0.060000 0.021992 0.128374 0.060000 0.021626 0.128008 0.060000 0.021150 0.127778 0.060000 0.020595 0.127700 0.060000 0.020000 0.127778 0.060000 0.019405 0.128008 0.060000 0.018850 0.128374 0.060000 0.018374 0.128850 0.060000 0.018008 0.129405 0.060000 0.017778 0.130000 0.060000 0.017700 0.130595 0.060000 0.017778 0.131150 0.060000 0.018008 0.131626 0.060000 0.018374 0.131992 0.060000 0.018850 0.132222 0.060000 0.019405 0.132300 0.025000 0.020000 0.132222 0.025000 0.019405 0.131992 0.025000 0.018850 0.131626 0.025000 0.018374 0.131150 0.025000 0.018008 0.130595 0.025000 0.017778 0.130000 0.025000 0.017700 0.129405 0.025000 0.017778 0.128850 0.025000 0.018008 0.128374 0.025000 0.018374 0.128008 0.025000 0.018850 0.127778 0.025000 0.019405 0.127700 0.025000 0.020000 0.127778 0.025000 0.020595 0.128008 0.025000 0.021150 0.128374 0.025000 0.021626 0.128850 0.025000 0.021992 0.129405 0.025000 0.022222 0.130000 0.025000 0.022300 0.130595 0.025000 0.022222 0.131150 0.025000 0.021992 0.131626 0.025000 0.021626 0.131992 0.025000 0.021150 0.132222 0.025000 0.020595 0.132300 0.048333 0.020000 0.132300 0.036667 0.020000 0.132222 0.048333 0.020595 0.132222 0.036667 0.020595 0.131992 0.048333 0.021150 0.131992 0.036667 0.021150 0.131626 0.048333 0.021626 0.131626 0.036667 0.021626 0.131150 0.048333 0.021992 0.131150 0.036667 0.021992 0.130595 0.048333 0.022222 0.130595 0.036667 0.022222 0.130000 0.048333 0.022300 0.130000 0.036667 0.022300 0.129405 0.048333 0.022222 0.129405 0.036667 0.022222 0.128850 0.048333 0.021992 0.128850 0.036667 0.021992 0.128374 0.048333 0.021626 0.128374 0.036667 0.021626 0.128008 0.048333 0.021150 0.128008 0.036667 0.021150 0.127778 0.048333 0.020595 0.127778 0.036667 0.020595 0.127700 0.048333 0.020000 0.127700 0.036667 0.020000 0.127778 0.048333 0.019405 0.127778 0.036667 0.019405 0.128008 0.048333 0.018850 0.128008 0.036667 0.018850 0.128374 0.048333 0.018374 0.128374 0.036667 0.018374 0.128850 0.048333 0.018008 0.128850 0.036667 0.018008 0.129405 0.048333 0.017778 0.129405 0.036667 0.017778 0.130000 0.048333 0.017700 0.130000 0.036667 0.017700 0.130595 0.048333 0.017778 0.130595 0.036667 0.017778 0.131150 0.048333 0.018008 0.131150 0.036667 0.018008 0.131626 0.048333 0.018374 0.131626 0.036667 0.018374 0.131992 0.048333 0.018850 0.131992 0.036667 0.018850 0.132222 0.048333 0.019405 0.132222 0.036667 0.019405 0.127700 -0.185000 0.020000 0.127778 -0.185000 0.020595 0.128008 -0.185000 0.021150 0.128374 -0.185000 0.021626 0.128850 -0.185000 0.021992 0.129405 -0.185000 0.022222 0.130000 -0.185000 0.022300 0.130595 -0.185000 0.022222 0.131150 -0.185000 0.021992 0.131626 -0.185000 0.021626 0.131992 -0.185000 0.021150 0.132222 -0.185000 0.020595 0.132300 -0.185000 0.020000 0.132222 -0.185000 0.019405 0.131992 -0.185000 0.018850 0.131626 -0.185000 0.018374 0.131150 -0.185000 0.018008 0.130595 -0.185000 0.017778 0.130000 -0.185000 0.017700 0.129405 -0.185000 0.017778 0.128850 -0.185000 0.018008 0.128374 -0.185000 0.018374 0.128008 -0.185000 0.018850 0.127778 -0.185000 0.019405 0.127700 -0.150000 0.020000 0.127778 -0.150000 0.019405 0.128008 -0.150000 0.018850 0.128374 -0.150000 0.018374 0.128850 -0.150000 0.018008 0.129405 -0.150000 0.017778 0.130000 -0.150000 0.017700 0.130595 -0.150000 0.017778 0.131150 -0.150000 0.018008 0.131626 -0.150000 0.018374 0.131992 -0.150000 0.018850 0.132222 -0.150000 0.019405 0.132300 -0.150000 0.020000 0.132222 -0.150000 0.020595 0.131992 -0.150000 0.021150 0.131626 -0.150000 0.021626 0.131150 -0.150000 0.021992 0.130595 -0.150000 0.022222 0.130000 -0.150000 0.022300 0.129405 -0.150000 0.022222 0.128850 -0.150000 0.021992 0.128374 -0.150000 0.021626 0.128008 -0.150000 0.021150 0.127778 -0.150000 0.020595 0.127700 -0.173333 0.020000 0.127700 -0.161667 0.020000 0.127778 -0.173333 0.020595 0.127778 -0.161667 0.020595 0.128008 -0.173333 0.021150 0.128008 -0.161667 0.021150 0.128374 -0.173333 0.021626 0.128374 -0.161667 0.021626 0.128850 -0.173333 0.021992 0.128850 -0.161667 0.021992 0.129405 -0.173333 0.022222 0.129405 -0.161667 0.022222 0.130000 -0.173333 0.022300 0.130000 -0.161667 0.022300 0.130595 -0.173333 0.022222 0.130595 -0.161667 0.022222 0.131150 -0.173333 0.021992 0.131150 -0.161667 0.021992 0.131626 -0.173333 0.021626 0.131626 -0.161667 0.021626 0.131992 -0.173333 0.021150 0.131992 -0.161667 0.021150 0.132222 -0.173333 0.020595 0.132222 -0.161667 0.020595 0.132300 -0.173333 0.020000 0.132300 -0.161667 0.020000 0.132222 -0.173333 0.019405 0.132222 -0.161667 0.019405 0.131992 -0.173333 0.018850 0.131992 -0.161667 0.018850 0.131626 -0.173333 0.018374 0.131626 -0.161667 0.018374 0.131150 -0.173333 0.018008 0.131150 -0.161667 0.018008 0.130595 -0.173333 0.017778 0.130595 -0.161667 0.017778 0.130000 -0.173333 0.017700 0.130000 -0.161667 0.017700 0.129405 -0.173333 0.017778 0.129405 -0.161667 0.017778 0.128850 -0.173333 0.018008 0.128850 -0.161667 0.018008 0.128374 -0.173333 0.018374 0.128374 -0.161667 0.018374 0.128008 -0.173333 0.018850 0.128008 -0.161667 0.018850 0.127778 -0.173333 0.019405 0.127778 -0.161667 0.019405 -0.022300 -0.185000 0.020000 -0.022222 -0.185000 0.020595 -0.021992 -0.185000 0.021150 -0.021626 -0.185000 0.021626 -0.021150 -0.185000 0.021992 -0.020595 -0.185000 0.022222 -0.020000 -0.185000 0.022300 -0.019405 -0.185000 0.022222 -0.018850 -0.185000 0.021992 -0.018374 -0.185000 0.021626 -0.018008 -0.185000 0.021150 -0.017778 -0.185000 0.020595 -0.017700 -0.185000 0.020000 -0.017778 -0.185000 0.019405 -0.018008 -0.185000 0.018850 -0.018374 -0.185000 0.018374 -0.018850 -0.185000 0.018008 -0.019405 -0.185000 0.017778 -0.020000 -0.185000 0.017700 -0.020595 -0.185000 0.017778 -0.021150 -0.185000 0.018008 -0.021626 -0.185000 0.018374 -0.021992 -0.185000 0.018850 -0.022222 -0.185000 0.019405 -0.022300 -0.150000 0.020000 -0.022222 -0.150000 0.019405 -0.021992 -0.150000 0.018850 -0.021626 -0.150000 0.018374 -0.021150 -0.150000 0.018008 -0.020595 -0.150000 0.017778 -0.020000 -0.150000 0.017700 -0.019405 -0.150000 0.017778 -0.018850 -0.150000 0.018008 -0.018374 -0.150000 0.018374 -0.018008 -0.150000 0.018850 -0.017778 -0.150000 0.019405 -0.017700 -0.150000 0.020000 -0.017778 -0.150000 0.020595 -0.018008 -0.150000 0.021150 -0.018374 -0.150000 0.021626 -0.018850 -0.150000 0.021992 -0.019405 -0.150000 0.022222 -0.020000 -0.150000 0.022300 -0.020595 -0.150000 0.022222 -0.021150 -0.150000 0.021992 -0.021626 -0.150000 0.021626 -0.021992 -0.150000 0.021150 -0.022222 -0.150000 0.020595 -0.022300 -0.173333 0.020000 -0.022300 -0.161667 0.020000 -0.022222 -0.173333 0.020595 -0.022222 -0.161667 0.020595 -0.021992 -0.173333 0.021150 -0.021992 -0.161667 0.021150 -0.021626 -0.173333 0.021626 -0.021626 -0.161667 0.021626 -0.021150 -0.173333 0.021992 -0.021150 -0.161667 0.021992 -0.020595 -0.173333 0.022222 -0.020595 -0.161667 0.022222 -0.020000 -0.173333 0.022300 -0.020000 -0.161667 0.022300 -0.019405 -0.173333 0.022222 -0.019405 -0.161667 0.022222 -0.018850 -0.173333 0.021992 -0.018850 -0.161667 0.021992 -0.018374 -0.173333 0.021626 -0.018374 -0.161667 0.021626 -0.018008 -0.173333 0.021150 -0.018008 -0.161667 0.021150 -0.017778 -0.173333 0.020595 -0.017778 -0.161667 0.020595 -0.017700 -0.173333 0.020000 -0.017700 -0.161667 0.020000 -0.017778 -0.173333 0.019405 -0.017778 -0.161667 0.019405 -0.018008 -0.173333 0.018850 -0.018008 -0.161667 0.018850 -0.018374 -0.173333 0.018374 -0.018374 -0.161667 0.018374 -0.018850 -0.173333 0.018008 -0.018850 -0.161667 0.018008 -0.019405 -0.173333 0.017778 -0.019405 -0.161667 0.017778 -0.020000 -0.173333 0.017700 -0.020000 -0.161667 0.017700 -0.020595 -0.173333 0.017778 -0.020595 -0.161667 0.017778 -0.021150 -0.173333 0.018008 -0.021150 -0.161667 0.018008 -0.021626 -0.173333 0.018374 -0.021626 -0.161667 0.018374 -0.021992 -0.173333 0.018850 -0.021992 -0.161667 0.018850 -0.022222 -0.173333 0.019405 -0.022222 -0.161667 0.019405 -0.001372 -0.098521 0.050000 0.004165 -0.093547 0.050000 0.004165 -0.093547 0.055000 -0.001372 -0.098521 0.055000 -0.001331 -0.100044 0.050000 -0.001503 -0.099867 0.050000 -0.001626 -0.099653 0.050000 -0.001693 -0.099415 0.050000 -0.001700 -0.099169 0.050000 -0.001646 -0.098928 0.050000 -0.001534 -0.098707 0.050000 -0.001534 -0.098707 0.055000 -0.001646 -0.098928 0.055000 -0.001700 -0.099169 0.055000 -0.001693 -0.099415 0.055000 -0.001626 -0.099653 0.055000 -0.001503 -0.099867 0.055000 -0.001331 -0.100044 0.055000 0.003933 -0.104279 0.050000 0.003933 -0.104279 0.055000 0.004301 -0.119552 0.050000 0.005614 -0.118139 0.050000 0.006631 -0.116500 0.050000 0.007314 -0.114696 0.050000 0.007639 -0.112795 0.050000 0.007592 -0.110867 0.050000 0.007177 -0.108984 0.050000 0.006407 -0.107215 0.050000 0.005312 -0.105628 0.050000 0.005312 -0.105628 0.055000 0.006407 -0.107215 0.055000 0.007177 -0.108984 0.055000 0.007592 -0.110867 0.055000 0.007639 -0.112795 0.055000 0.007314 -0.114696 0.055000 0.006631 -0.116500 0.055000 0.005614 -0.118139 0.055000 0.004301 -0.119552 0.055000 -0.021790 -0.142697 0.050000 -0.021790 -0.142697 0.055000 -0.021790 -0.117128 0.050000 -0.021790 -0.117128 0.055000 -0.014214 -0.111015 0.050000 -0.014214 -0.111015 0.055000 -0.014214 -0.126426 0.050000 -0.014214 -0.126426 0.055000 -0.003800 -0.118024 0.050000 -0.003800 -0.118024 0.055000 -0.003808 -0.107901 0.050000 -0.002662 -0.109092 0.050000 -0.001853 -0.110534 0.050000 -0.001435 -0.112134 0.050000 -0.001434 -0.113787 0.050000 -0.001850 -0.115387 0.050000 -0.002656 -0.116831 0.050000 -0.002656 -0.116831 0.055000 -0.001850 -0.115387 0.055000 -0.001434 -0.113787 0.055000 -0.001435 -0.112134 0.055000 -0.001853 -0.110534 0.055000 -0.002662 -0.109092 0.055000 -0.003808 -0.107901 0.055000 -0.021790 -0.093433 0.050000 -0.021790 -0.093433 0.055000 -0.021790 -0.083294 0.050000 -0.021790 -0.083294 0.055000 -0.008634 -0.094370 0.050000 -0.008634 -0.094370 0.055000 -0.004329 -0.090904 0.050000 -0.004329 -0.090904 0.055000 -0.004219 -0.080868 0.050000 -0.003111 -0.082069 0.050000 -0.002338 -0.083508 0.050000 -0.001948 -0.085095 0.050000 -0.001966 -0.086729 0.050000 -0.002390 -0.088306 0.050000 -0.003195 -0.089728 0.050000 -0.003195 -0.089728 0.055000 -0.002390 -0.088306 0.055000 -0.001966 -0.086729 0.055000 -0.001948 -0.085095 0.055000 -0.002338 -0.083508 0.055000 -0.003111 -0.082069 0.055000 -0.004219 -0.080868 0.055000 -0.021790 -0.066076 0.050000 -0.021790 -0.066076 0.055000 -0.021790 -0.055000 0.050000 -0.021790 -0.055000 0.055000 0.004221 -0.078718 0.050000 0.004221 -0.078718 0.055000 0.005563 -0.092000 0.050000 0.006609 -0.090198 0.050000 0.007258 -0.088217 0.050000 0.007483 -0.086145 0.050000 0.007274 -0.084071 0.050000 0.006639 -0.082086 0.050000 0.005607 -0.080275 0.050000 0.005607 -0.080275 0.055000 0.006639 -0.082086 0.055000 0.007274 -0.084071 0.055000 0.007483 -0.086145 0.055000 0.007258 -0.088217 0.055000 0.006609 -0.090198 0.055000 0.005563 -0.092000 0.055000 -0.005000 -0.040000 0.050000 -0.025000 -0.020000 0.050000 -0.025000 -0.020000 0.055000 -0.005000 -0.040000 0.055000 -0.005000 -0.055000 0.050000 -0.005000 -0.055000 0.055000 -0.025000 -0.035000 0.050000 -0.025000 -0.035000 0.055000 -0.045000 -0.055000 0.050000 -0.045000 -0.055000 0.055000 -0.045000 -0.040000 0.050000 -0.045000 -0.040000 0.055000 0.020000 -0.015000 0.050000 0.020000 0.000000 0.050000 0.020000 0.000000 0.055000 0.020000 -0.015000 0.055000 0.000000 -0.035000 0.050000 0.000000 -0.035000 0.055000 -0.020000 -0.016190 0.050000 -0.020000 -0.016190 0.055000 -0.020000 0.000000 0.050000 -0.020000 0.000000 0.055000 0.000000 -0.020000 0.050000 0.000000 -0.020000 0.055000 0.173541 -0.137500 0.050000 0.172859 -0.138998 0.049908 0.172045 -0.140458 0.049642 0.171115 -0.141845 0.049220 0.170088 -0.143127 0.048661 0.168994 -0.144286 0.047995 0.167868 -0.145310 0.047259 0.166731 -0.146197 0.046477 0.165538 -0.146996 0.045625 0.164289 -0.147709 0.044708 0.162996 -0.148330 0.043738 0.160325 -0.149277 0.041687 0.157624 -0.149824 0.039572 0.155000 -0.150000 0.037500 0.145000 -0.150000 0.037500 0.145000 -0.149810 0.039671 0.145000 -0.149246 0.041775 0.145000 -0.148325 0.043750 0.145000 -0.147076 0.045535 0.145000 -0.145535 0.047076 0.145000 -0.143750 0.048325 0.145000 -0.141775 0.049246 0.145000 -0.139671 0.049810 0.145000 -0.137500 0.050000 0.155000 0.025000 0.037500 0.157624 0.024824 0.039572 0.160325 0.024277 0.041687 0.162996 0.023330 0.043738 0.164289 0.022709 0.044708 0.165538 0.021996 0.045625 0.166731 0.021197 0.046477 0.167868 0.020310 0.047259 0.168994 0.019286 0.047995 0.170088 0.018127 0.048661 0.171115 0.016845 0.049220 0.172045 0.015458 0.049642 0.172859 0.013998 0.049908 0.173541 0.012500 0.050000 0.145000 0.012500 0.050000 0.145000 0.014671 0.049810 0.145000 0.016775 0.049246 0.145000 0.018750 0.048325 0.145000 0.020535 0.047076 0.145000 0.022076 0.045535 0.145000 0.023325 0.043750 0.145000 0.024246 0.041775 0.145000 0.024810 0.039671 0.145000 0.025000 0.037500 0.173541 -0.137500 0.020000 0.174347 -0.135069 0.020000 0.174836 -0.132556 0.020000 0.175000 -0.130000 0.020000 0.175000 0.005000 0.020000 0.174836 0.007556 0.020000 0.174347 0.010069 0.020000 0.173541 0.012500 0.020000 0.145000 0.012500 0.020000 0.145000 -0.137500 0.020000 0.172859 0.013998 0.020092 0.172045 0.015458 0.020358 0.171115 0.016845 0.020780 0.170088 0.018127 0.021339 0.168994 0.019286 0.022005 0.167868 0.020310 0.022741 0.166731 0.021197 0.023523 0.165538 0.021996 0.024375 0.164289 0.022709 0.025292 0.162996 0.023330 0.026262 0.160325 0.024277 0.028313 0.157624 0.024824 0.030428 0.155000 0.025000 0.032500 0.145000 0.025000 0.032500 0.145000 0.024810 0.030329 0.145000 0.024246 0.028225 0.145000 0.023325 0.026250 0.145000 0.022076 0.024465 0.145000 0.020535 0.022924 0.145000 0.018750 0.021675 0.145000 0.016775 0.020754 0.145000 0.014671 0.020190 0.155000 -0.150000 0.032500 0.157624 -0.149824 0.030428 0.160325 -0.149277 0.028313 0.162996 -0.148330 0.026262 0.164289 -0.147709 0.025292 0.165538 -0.146996 0.024375 0.166731 -0.146197 0.023523 0.167868 -0.145310 0.022741 0.168994 -0.144286 0.022005 0.170088 -0.143127 0.021339 0.171115 -0.141845 0.020780 0.172045 -0.140458 0.020358 0.172859 -0.138998 0.020092 0.145000 -0.139671 0.020190 0.145000 -0.141775 0.020754 0.145000 -0.143750 0.021675 0.145000 -0.145535 0.022924 0.145000 -0.147076 0.024465 0.145000 -0.148325 0.026250 0.145000 -0.149246 0.028225 0.145000 -0.149810 0.030329 0.145000 -0.150000 0.032500 0.155000 -0.150000 0.000000 0.157846 -0.149796 0.000000 0.160635 -0.149190 0.000000 0.163308 -0.148193 0.000000 0.165813 -0.146825 0.000000 0.168097 -0.145115 0.000000 0.170115 -0.143097 0.000000 0.171825 -0.140813 0.000000 0.173193 -0.138308 0.000000 0.174190 -0.135635 0.000000 0.174796 -0.132846 0.000000 0.175000 -0.130000 0.000000 0.172229 -0.140157 0.050000 0.170539 -0.142591 0.050000 0.168508 -0.144749 0.050000 0.166180 -0.146583 0.050000 0.163607 -0.148053 0.050000 0.160845 -0.149127 0.050000 0.157955 -0.149780 0.050000 0.155000 -0.150000 0.050000 0.172229 0.015157 0.050000 0.170539 0.017591 0.050000 0.168508 0.019749 0.050000 0.166180 0.021583 0.050000 0.163607 0.023053 0.050000 0.160845 0.024127 0.050000 0.157955 0.024780 0.050000 0.155000 0.025000 0.050000 -0.055000 0.025000 0.050000 -0.057846 0.024796 0.050000 -0.060635 0.024190 0.050000 -0.063308 0.023193 0.050000 -0.065813 0.021825 0.050000 -0.068097 0.020115 0.050000 -0.070115 0.018097 0.050000 -0.071825 0.015813 0.050000 -0.073193 0.013308 0.050000 -0.074190 0.010635 0.050000 -0.074796 0.007846 0.050000 -0.075000 0.005000 0.050000 -0.075000 -0.130000 0.050000 -0.074796 -0.132846 0.050000 -0.074190 -0.135635 0.050000 -0.073193 -0.138308 0.050000 -0.071825 -0.140813 0.050000 -0.070115 -0.143097 0.050000 -0.068097 -0.145115 0.050000 -0.065813 -0.146825 0.050000 -0.063308 -0.148193 0.050000 -0.060635 -0.149190 0.050000 -0.057846 -0.149796 0.050000 -0.055000 -0.150000 0.050000 0.175000 0.005000 0.000000 0.174796 0.007846 0.000000 0.174190 0.010635 0.000000 0.173193 0.013308 0.000000 0.171825 0.015813 0.000000 0.170115 0.018097 0.000000 0.168097 0.020115 0.000000 0.165813 0.021825 0.000000 0.163308 0.023193 0.000000 0.160635 0.024190 0.000000 0.157846 0.024796 0.000000 0.155000 0.025000 0.000000 -0.055000 0.025000 0.000000 -0.055000 -0.150000 0.000000 -0.075000 -0.130000 0.000000 -0.074796 -0.132846 0.000000 -0.074190 -0.135635 0.000000 -0.073193 -0.138308 0.000000 -0.071825 -0.140813 0.000000 -0.070115 -0.143097 0.000000 -0.068097 -0.145115 0.000000 -0.065813 -0.146825 0.000000 -0.063308 -0.148193 0.000000 -0.060635 -0.149190 0.000000 -0.057846 -0.149796 0.000000 -0.075000 0.005000 0.000000 -0.057846 0.024796 0.000000 -0.060635 0.024190 0.000000 -0.063308 0.023193 0.000000 -0.065813 0.021825 0.000000 -0.068097 0.020115 0.000000 -0.070115 0.018097 0.000000 -0.071825 0.015813 0.000000 -0.073193 0.013308 0.000000 -0.074190 0.010635 0.000000 -0.074796 0.007846 0.000000</float_array>
          <technique_common>
            <accessor source="#base_link-mesh-positions-array" count="702" stride="3">
              <param name="X" type="float"/>
              <param name="Y" type="float"/>
              <param name="Z" type="float"/>
            </accessor>
          </technique_common>
        </source>
        <source id="base_link-mesh-normals">
          <float_array id="base_link-mesh-normals-array" count="3786">0.965926 0.000000 0.258819 0.965926 0.000000 0.258819 1.000000 0.000000 0.000000 1.000000 0.000000 0.000000 0.965926 0.000000 -0.258819 0.965926 0.000000 -0.258819 0.866025 0.000000 -0.500000 0.866025 0.000000 -0.500000 0.707107 0.000000 -0.707107 0.707107 0.000000 -0.707107 0.500000 0.000000 -0.866025 0.500000 0.000000 -0.866025 0.258819 0.000000 -0.965926 0.258819 0.000000 -0.965926 0.000000 0.000000 -1.000000 0.000000 0.000000 -1.000000 -0.258819 0.000000 -0.965926 -0.258819 0.000000 -0.965926 -0.500000 0.000000 -0.866025 -0.500000 0.000000 -0.866025 -0.707107 0.000000 -0.707107 -0.707107 0.000000 -0.707107 -0.866025 0.000000 -0.500000 -0.866025 0.000000 -0.500000 -0.965926 0.000000 -0.258819 -0.965926 0.000000 -0.258819 -1.000000 0.000000 0.000000 -1.000000 0.000000 0.000000 -0.965926 0.000000 0.258819 -0.965926 0.000000 0.258819 -0.866025 0.000000 0.500000 -0.866025 0.000000 0.500000 -0.707107 0.000000 0.707107 -0.707107 0.000000 0.707107 -0.500000 0.000000 0.866025 -0.500000 0.000000 0.866025 -0.258819 0.000000 0.965926 -0.258819 0.000000 0.965926 0.000000 0.000000 1.000000 0.000000 0.000000 1.000000 0.258819 0.000000 0.965926 0.258819 0.000000 0.965926 0.500000 0.000000 0.866025 0.500000 0.000000 0.866025 0.707107 0.000000 0.707107 0.707107 0.000000 0.707107 0.866025 0.000000 0.500000 0.866025 0.000000 0.500000 0.965926 0.000000 -0.258819 0.965926 0.000000 -0.258819 1.000000 0.000000 0.000000 1.000000 0.000000 0.000000 0.965926 0.000000 0.258819 0.965926 0.000000 0.258819 0.866025 0.000000 0.500000 0.866025 0.000000 0.500000 0.707107 0.000000 0.707107 0.707107 0.000000 0.707107 0.500000 0.000000 0.866025 0.500000 0.000000 0.866025 0.258819 0.000000 0.965926 0.258819 0.000000 0.965926 0.000000 0.000000 1.000000 0.000000 0.000000 1.000000 -0.258819 0.000000 0.965926 -0.258819 0.000000 0.965926 -0.500000 0.000000 0.866025 -0.500000 0.000000 0.866025 -0.707107 0.000000 0.707107 -0.707107 0.000000 0.707107 -0.866025 0.000000 0.500000 -0.866025 0.000000 0.500000 -0.965926 0.000000 0.258819 -0.965926 0.000000 0.258819 -1.000000 0.000000 0.000000 -1.000000 0.000000 0.000000 -0.965926 0.000000 -0.258819 -0.965926 0.000000 -0.258819 -0.866025 0.000000 -0.500000 -0.866025 0.000000 -0.500000 -0.707107 0.000000 -0.707107 -0.707107 0.000000 -0.707107 -0.500000 0.000000 -0.866025 -0.500000 0.000000 -0.866025 -0.258819 0.000000 -0.965926 -0.258819 0.000000 -0.965926 0.000000 0.000000 -1.000000 0.000000 0.000000 -1.000000 0.258819 0.000000 -0.965926 0.258819 0.000000 -0.965926 0.500000 0.000000 -0.866025 0.500000 0.000000 -0.866025 0.707107 0.000000 -0.707107 0.707107 0.000000 -0.707107 0.866025 0.000000 -0.500000 0.866025 0.000000 -0.500000 0.000000 1.000000 0.000000 0.000000 1.000000 0.000000 0.000000 1.000000 0.000000 0.000000 1.000000 0.000000 0.000000 1.000000 0.000000 0.000000 1.000000 0.000000 0.000000 1.000000 0.000000 0.000000 1.000000 0.000000 0.000000 1.000000 0.000000 0.000000 1.000000 0.000000 0.000000 1.000000 0.000000 0.000000 1.000000 0.000000 0.000000 1.000000 0.000000 0.000000 1.000000 0.000000 0.000000 1.000000 0.000000 0.000000 1.000000 0.000000 0.000000 1.000000 0.000000 0.000000 1.000000 0.000000 0.000000 1.000000 0.000000 0.000000 1.000000 0.000000 0.000000 1.000000 0.000000 0.000000 1.000000 0.000000 0.000000 1.000000 0.000000 0.000000 1.000000 0.000000 0.965926 0.000000 0.258819 0.965926 0.000000 0.258819 1.000000 0.000000 0.000000 1.000000 0.000000 0.000000 0.965926 0.000000 -0.258819 0.965926 0.000000 -0.258819 0.866025 0.000000 -0.500000 0.866025 0.000000 -0.500000 0.707107 0.000000 -0.707107 0.707107 0.000000 -0.707107 0.500000 0.000000 -0.866025 0.500000 0.000000 -0.866025 0.258819 0.000000 -0.965926 0.258819 0.000000 -0.965926 0.000000 0.000000 -1.000000 0.000000 0.000000 -1.000000 -0.258819 0.000000 -0.965926 -0.258819 0.000000 -0.965926 -0.500000 0.000000 -0.866025 -0.500000 0.000000 -0.866025 -0.707107 0.000000 -0.707107 -0.707107 0.000000 -0.707107 -0.866025 0.000000 -0.500000 -0.866025 0.000000 -0.500000 -0.965926 0.000000 -0.258819 -0.965926 0.000000 -0.258819 -1.000000 0.000000 0.000000 -1.000000 0.000000 0.000000 -0.965926 0.000000 0.258819 -0.965926 0.000000 0.258819 -0.866025 0.000000 0.500000 -0.866025 0.000000 0.500000 -0.707107 0.000000 0.707107 -0.707107 0.000000 0.707107 -0.500000 0.000000 0.866025 -0.500000 0.000000 0.866025 -0.258819 0.000000 0.965926 -0.258819 0.000000 0.965926 0.000000 0.000000 1.000000 0.000000 0.000000 1.000000 0.258819 0.000000 0.965926 0.258819 0.000000 0.965926 0.500000 0.000000 0.866025 0.500000 0.000000 0.866025 0.707107 0.000000 0.707107 0.707107 0.000000 0.707107 0.866025 0.000000 0.500000 0.866025 0.000000 0.500000 0.965926 0.000000 -0.258819 0.965926 0.000000 -0.258819 1.000000 0.000000 0.000000 1.000000 0.000000 0.000000 0.965926 0.000000 0.258819 0.965926 0.000000 0.258819 0.866025 0.000000 0.500000 0.866025 0.000000 0.500000 0.707107 0.000000 0.707107 0.707107 0.000000 0.707107 0.500000 0.000000 0.866025 0.500000 0.000000 0.866025 0.258819 0.000000 0.965926 0.258819 0.000000 0.965926 0.000000 0.000000 1.000000 0.000000 0.000000 1.000000 -0.258819 0.000000 0.965926 -0.258819 0.000000 0.965926 -0.500000 0.000000 0.866025 -0.500000 0.000000 0.866025 -0.707107 0.000000 0.707107 -0.707107 0.000000 0.707107 -0.866025 0.000000 0.500000 -0.866025 0.000000 0.500000 -0.965926 0.000000 0.258819 -0.965926 0.000000 0.258819 -1.000000 0.000000 0.000000 -1.000000 0.000000 0.000000 -0.965926 0.000000 -0.258819 -0.965926 0.000000 -0.258819 -0.866025 0.000000 -0.500000 -0.866025 0.000000 -0.500000 -0.707107 0.000000 -0.707107 -0.707107 0.000000 -0.707107 -0.500000 0.000000 -0.866025 -0.500000 0.000000 -0.866025 -0.258819 0.000000 -0.965926 -0.258819 0.000000 -0.965926 0.000000 0.000000 -1.000000 0.000000 0.000000 -1.000000 0.258819 0.000000 -0.965926 0.258819 0.000000 -0.965926 0.500000 0.000000 -0.866025 0.500000 0.000000 -0.866025 0.707107 0.000000 -0.707107 0.707107 0.000000 -0.707107 0.866025 0.000000 -0.500000 0.866025 0.000000 -0.500000 0.000000 1.000000 0.000000 0.000000 1.000000 0.000000 0.000000 1.000000 0.000000 0.000000 1.000000 0.000000 0.000000 1.000000 0.000000 0.000000 1.000000 0.000000 0.000000 1.000000 0.000000 0.000000 1.000000 0.000000 0.000000 1.000000 0.000000 0.000000 1.000000 0.000000 0.000000 1.000000 0.000000 0.000000 1.000000 0.000000 0.000000 1.000000 0.000000 0.000000 1.000000 0.000000 0.000000 1.000000 0.000000 0.000000 1.000000 0.000000 0.000000 1.000000 0.000000 0.000000 1.000000 0.000000 0.000000 1.000000 0.000000 0.000000 1.000000 0.000000 0.000000 1.000000 0.000000 0.000000 1.000000 0.000000 0.000000 1.000000 0.000000 0.000000 1.000000 0.000000 -0.965926 0.000000 0.258819 -0.965926 0.000000 0.258819 -1.000000 0.000000 0.000000 -1.000000 0.000000 0.000000 -0.965926 -0.000000 -0.258819 -0.965926 -0.000000 -0.258819 -0.866025 -0.000000 -0.500000 -0.866025 -0.000000 -0.500000 -0.707107 -0.000000 -0.707107 -0.707107 -0.000000 -0.707107 -0.500000 -0.000000 -0.866025 -0.500000 -0.000000 -0.866025 -0.258819 -0.000000 -0.965926 -0.258819 -0.000000 -0.965926 0.000000 0.000000 -1.000000 0.000000 0.000000 -1.000000 0.258819 0.000000 -0.965926 0.258819 0.000000 -0.965926 0.500000 0.000000 -0.866025 0.500000 0.000000 -0.866025 0.707107 0.000000 -0.707107 0.707107 0.000000 -0.707107 0.866025 0.000000 -0.500000 0.866025 0.000000 -0.500000 0.965926 0.000000 -0.258819 0.965926 0.000000 -0.258819 1.000000 0.000000 0.000000 1.000000 0.000000 0.000000 0.965926 0.000000 0.258819 0.965926 0.000000 0.258819 0.866025 0.000000 0.500000 0.866025 0.000000 0.500000 0.707107 0.000000 0.707107 0.707107 0.000000 0.707107 0.500000 0.000000 0.866025 0.500000 0.000000 0.866025 0.258819 0.000000 0.965926 0.258819 0.000000 0.965926 0.000000 0.000000 1.000000 0.000000 0.000000 1.000000 -0.258819 0.000000 0.965926 -0.258819 0.000000 0.965926 -0.500000 0.000000 0.866025 -0.500000 0.000000 0.866025 -0.707107 0.000000 0.707107 -0.707107 0.000000 0.707107 -0.866025 0.000000 0.500000 -0.866025 0.000000 0.500000 -0.965926 -0.000000 -0.258819 -0.965926 -0.000000 -0.258819 -1.000000 -0.000000 -0.000000 -1.000000 -0.000000 -0.000000 -0.965926 0.000000 0.258819 -0.965926 0.000000 0.258819 -0.866025 0.000000 0.500000 -0.866025 0.000000 0.500000 -0.707107 0.000000 0.707107 -0.707107 0.000000 0.707107 -0.500000 0.000000 0.866025 -0.500000 0.000000 0.866025 -0.258819 0.000000 0.965926 -0.258819 0.000000 0.965926 0.000000 0.000000 1.000000 0.000000 0.000000 1.000000 0.258819 0.000000 0.965926 0.258819 0.000000 0.965926 0.500000 0.000000 0.866025 0.500000 0.000000 0.866025 0.707107 0.000000 0.707107 0.707107 0.000000 0.707107 0.866025 0.000000 0.500000 0.866025 0.000000 0.500000 0.965926 0.000000 0.258819 0.965926 0.000000 0.258819 1.000000 0.000000 0.000000 1.000000 0.000000 0.000000 0.965926 0.000000 -0.258819 0.965926 0.000000 -0.258819 0.866025 0.000000 -0.500000 0.866025 0.000000 -0.500000 0.707107 0.000000 -0.707107 0.707107 0.000000 -0.707107 0.500000 0.000000 -0.866025 0.500000 0.000000 -0.866025 0.258819 0.000000 -0.965926 0.258819 0.000000 -0.965926 0.000000 0.000000 -1.000000 0.000000 0.000000 -1.000000 -0.258819 -0.000000 -0.965926 -0.258819 -0.000000 -0.965926 -0.500000 -0.000000 -0.866025 -0.500000 -0.000000 -0.866025 -0.707107 -0.000000 -0.707107 -0.707107 -0.000000 -0.707107 -0.866025 -0.000000 -0.500000 -0.866025 -0.000000 -0.500000 0.000000 -1.000000 0.000000 0.000000 -1.000000 0.000000 0.000000 -1.000000 0.000000 0.000000 -1.000000 0.000000 0.000000 -1.000000 0.000000 0.000000 -1.000000 0.000000 0.000000 -1.000000 0.000000 0.000000 -1.000000 0.000000 0.000000 -1.000000 0.000000 0.000000 -1.000000 0.000000 0.000000 -1.000000 0.000000 0.000000 -1.000000 0.000000 0.000000 -1.000000 0.000000 0.000000 -1.000000 0.000000 0.000000 -1.000000 0.000000 0.000000 -1.000000 0.000000 0.000000 -1.000000 0.000000 0.000000 -1.000000 0.000000 0.000000 -1.000000 0.000000 0.000000 -1.000000 0.000000 0.000000 -1.000000 0.000000 0.000000 -1.000000 0.000000 0.000000 -1.000000 0.000000 0.000000 -1.000000 0.000000 -0.965926 0.000000 0.258819 -0.965926 0.000000 0.258819 -1.000000 0.000000 0.000000 -1.000000 0.000000 0.000000 -0.965926 -0.000000 -0.258819 -0.965926 -0.000000 -0.258819 -0.866025 -0.000000 -0.500000 -0.866025 -0.000000 -0.500000 -0.707107 -0.000000 -0.707107 -0.707107 -0.000000 -0.707107 -0.500000 -0.000000 -0.866025 -0.500000 -0.000000 -0.866025 -0.258819 -0.000000 -0.965926 -0.258819 -0.000000 -0.965926 0.000000 0.000000 -1.000000 0.000000 0.000000 -1.000000 0.258819 0.000000 -0.965926 0.258819 0.000000 -0.965926 0.500000 0.000000 -0.866025 0.500000 0.000000 -0.866025 0.707107 0.000000 -0.707107 0.707107 0.000000 -0.707107 0.866025 0.000000 -0.500000 0.866025 0.000000 -0.500000 0.965926 0.000000 -0.258819 0.965926 0.000000 -0.258819 1.000000 0.000000 0.000000 1.000000 0.000000 0.000000 0.965926 0.000000 0.258819 0.965926 0.000000 0.258819 0.866025 0.000000 0.500000 0.866025 0.000000 0.500000 0.707107 0.000000 0.707107 0.707107 0.000000 0.707107 0.500000 0.000000 0.866025 0.500000 0.000000 0.866025 0.258819 0.000000 0.965926 0.258819 0.000000 0.965926 0.000000 0.000000 1.000000 0.000000 0.000000 1.000000 -0.258819 0.000000 0.965926 -0.258819 0.000000 0.965926 -0.500000 0.000000 0.866025 -0.500000 0.000000 0.866025 -0.707107 0.000000 0.707107 -0.707107 0.000000 0.707107 -0.866025 0.000000 0.500000 -0.866025 0.000000 0.500000 -0.965926 -0.000000 -0.258819 -0.965926 -0.000000 -0.258819 -1.000000 -0.000000 -0.000000 -1.000000 -0.000000 -0.000000 -0.965926 0.000000 0.258819 -0.965926 0.000000 0.258819 -0.866025 0.000000 0.500000 -0.866025 0.000000 0.500000 -0.707107 0.000000 0.707107 -0.707107 0.000000 0.707107 -0.500000 0.000000 0.866025 -0.500000 0.000000 0.866025 -0.258819 0.000000 0.965926 -0.258819 0.000000 0.965926 0.000000 0.000000 1.000000 0.000000 0.000000 1.000000 0.258819 0.000000 0.965926 0.258819 0.000000 0.965926 0.500000 0.000000 0.866025 0.500000 0.000000 0.866025 0.707107 0.000000 0.707107 0.707107 0.000000 0.707107 0.866025 0.000000 0.500000 0.866025 0.000000 0.500000 0.965926 0.000000 0.258819 0.965926 0.000000 0.258819 1.000000 0.000000 0.000000 1.000000 0.000000 0.000000 0.965926 0.000000 -0.258819 0.965926 0.000000 -0.258819 0.866025 0.000000 -0.500000 0.866025 0.000000 -0.500000 0.707107 0.000000 -0.707107 0.707107 0.000000 -0.707107 0.500000 0.000000 -0.866025 0.500000 0.000000 -0.866025 0.258819 0.000000 -0.965926 0.258819 0.000000 -0.965926 0.000000 0.000000 -1.000000 0.000000 0.000000 -1.000000 -0.258819 -0.000000 -0.965926 -0.258819 -0.000000 -0.965926 -0.500000 -0.000000 -0.866025 -0.500000 -0.000000 -0.866025 -0.707107 -0.000000 -0.707107 -0.707107 -0.000000 -0.707107 -0.866025 -0.000000 -0.500000 -0.866025 -0.000000 -0.500000 0.000000 -1.000000 0.000000 0.000000 -1.000000 0.000000 0.000000 -1.000000 0.000000 0.000000 -1.000000 0.000000 0.000000 -1.000000 0.000000 0.000000 -1.000000 0.000000 0.000000 -1.000000 0.000000 0.000000 -1.000000 0.000000 0.000000 -1.000000 0.000000 0.000000 -1.000000 0.000000 0.000000 -1.000000 0.000000 0.000000 -1.000000 0.000000 0.000000 -1.000000 0.000000 0.000000 -1.000000 0.000000 0.000000 -1.000000 0.000000 0.000000 -1.000000 0.000000 0.000000 -1.000000 0.000000 0.000000 -1.000000 0.000000 0.000000 -1.000000 0.000000 0.000000 -1.000000 0.000000 0.000000 -1.000000 0.000000 0.000000 -1.000000 0.000000 0.000000 -1.000000 0.000000 0.000000 -1.000000 0.000000 0.668203 -0.743979 0.000000 0.668203 -0.743979 0.000000 0.668203 -0.743979 0.000000 0.668203 -0.743979 0.000000 0.626833 0.779154 0.000000 0.626833 0.779154 0.000000 0.798594 0.601870 0.000000 0.798594 0.601870 0.000000 0.921696 0.387913 0.000000 0.921696 0.387913 0.000000 0.988637 0.150320 0.000000 0.988637 0.150320 0.000000 0.995340 -0.096432 0.000000 0.995340 -0.096432 0.000000 0.941394 -0.337309 0.000000 0.941394 -0.337309 0.000000 0.830088 -0.557633 0.000000 0.830088 -0.557633 0.000000 0.626833 0.779154 0.000000 0.626833 0.779154 0.000000 0.663615 -0.748075 0.000000 0.663615 -0.748075 0.000000 0.794876 -0.606771 0.000000 0.794876 -0.606771 0.000000 0.896572 -0.442899 0.000000 0.896572 -0.442899 0.000000 0.964918 -0.262552 0.000000 0.964918 -0.262552 0.000000 0.997373 -0.072439 0.000000 0.997373 -0.072439 0.000000 0.992729 0.120368 0.000000 0.992729 0.120368 0.000000 0.951160 0.308699 0.000000 0.951160 0.308699 0.000000 0.874211 0.485546 0.000000 0.874211 0.485546 0.000000 0.764745 0.644333 0.000000 0.764745 0.644333 0.000000 0.663615 -0.748075 0.000000 0.663615 -0.748075 0.000000 -1.000000 0.000000 0.000000 -1.000000 0.000000 0.000000 -1.000000 0.000000 0.000000 -1.000000 0.000000 0.000000 -0.627925 0.778274 0.000000 -0.627925 0.778274 0.000000 -0.627925 0.778274 0.000000 -0.627925 0.778274 0.000000 1.000000 0.000000 0.000000 1.000000 0.000000 0.000000 1.000000 0.000000 0.000000 1.000000 0.000000 0.000000 -0.627925 0.778274 0.000000 -0.627925 0.778274 0.000000 -0.627925 0.778274 0.000000 -0.627925 0.778274 0.000000 -0.626833 -0.779154 0.000000 -0.626833 -0.779154 0.000000 -0.803120 -0.595817 0.000000 -0.803120 -0.595817 0.000000 -0.927454 -0.373937 0.000000 -0.927454 -0.373937 0.000000 -0.991791 -0.127867 0.000000 -0.991791 -0.127867 0.000000 -0.991970 0.126475 0.000000 -0.991970 0.126475 0.000000 -0.927978 0.372635 0.000000 -0.927978 0.372635 0.000000 -0.803955 0.594690 0.000000 -0.803955 0.594690 0.000000 -0.626833 -0.779154 0.000000 -0.626833 -0.779154 0.000000 -1.000000 0.000000 0.000000 -1.000000 0.000000 0.000000 -1.000000 0.000000 0.000000 -1.000000 0.000000 0.000000 0.644026 0.765003 0.000000 0.644026 0.765003 0.000000 0.644026 0.765003 0.000000 0.644026 0.765003 0.000000 -0.627070 0.778963 0.000000 -0.627070 0.778963 0.000000 -0.627070 0.778963 0.000000 -0.627070 0.778963 0.000000 -0.644026 -0.765003 0.000000 -0.644026 -0.765003 0.000000 -0.814437 -0.580252 0.000000 -0.814437 -0.580252 0.000000 -0.933397 -0.358845 0.000000 -0.933397 -0.358845 0.000000 -0.993392 -0.114769 0.000000 -0.993392 -0.114769 0.000000 -0.990632 0.136558 0.000000 -0.990632 0.136558 0.000000 -0.925291 0.379258 0.000000 -0.925291 0.379258 0.000000 -0.801497 0.597999 0.000000 -0.801497 0.597999 0.000000 -0.644026 -0.765003 0.000000 -0.644026 -0.765003 0.000000 -1.000000 0.000000 0.000000 -1.000000 0.000000 0.000000 -1.000000 0.000000 0.000000 -1.000000 0.000000 0.000000 0.673781 0.738931 0.000000 0.673781 0.738931 0.000000 0.673781 0.738931 0.000000 0.673781 0.738931 0.000000 0.807913 -0.589302 0.000000 0.807913 -0.589302 0.000000 0.912524 -0.409023 0.000000 0.912524 -0.409023 0.000000 0.977491 -0.210975 0.000000 0.977491 -0.210975 0.000000 0.999993 -0.003761 0.000000 0.999993 -0.003761 0.000000 0.979051 0.203616 0.000000 0.979051 0.203616 0.000000 0.915575 0.402147 0.000000 0.915575 0.402147 0.000000 0.812323 0.583208 0.000000 0.812323 0.583208 0.000000 0.000000 0.000000 1.000000 0.000000 0.000000 1.000000 0.000000 0.000000 1.000000 0.000000 0.000000 1.000000 0.000000 0.000000 1.000000 0.000000 0.000000 1.000000 0.000000 0.000000 1.000000 0.000000 0.000000 1.000000 0.000000 0.000000 1.000000 0.000000 0.000000 1.000000 0.000000 0.000000 1.000000 0.000000 0.000000 1.000000 0.000000 0.000000 1.000000 0.000000 0.000000 1.000000 0.000000 0.000000 1.000000 0.000000 0.000000 1.000000 0.000000 0.000000 1.000000 0.000000 0.000000 1.000000 0.000000 0.000000 1.000000 0.000000 0.000000 1.000000 0.000000 0.000000 1.000000 0.000000 0.000000 1.000000 0.000000 0.000000 1.000000 0.000000 0.000000 1.000000 0.000000 0.000000 1.000000 0.000000 0.000000 1.000000 0.000000 0.000000 1.000000 0.000000 0.000000 1.000000 0.000000 0.000000 1.000000 0.000000 0.000000 1.000000 0.000000 0.000000 1.000000 0.000000 0.000000 1.000000 0.000000 0.000000 1.000000 0.000000 0.000000 1.000000 0.000000 0.000000 1.000000 0.000000 0.000000 1.000000 0.000000 0.000000 1.000000 0.000000 0.000000 1.000000 0.000000 0.000000 1.000000 0.000000 0.000000 1.000000 0.000000 0.000000 1.000000 0.000000 0.000000 1.000000 0.000000 0.000000 1.000000 0.000000 0.000000 1.000000 0.000000 0.000000 1.000000 0.000000 0.000000 1.000000 0.000000 0.000000 1.000000 0.000000 0.000000 1.000000 0.000000 0.000000 1.000000 0.000000 0.000000 1.000000 0.000000 0.000000 1.000000 0.000000 0.000000 1.000000 0.707107 0.707107 0.000000 0.707107 0.707107 0.000000 0.707107 0.707107 0.000000 0.707107 0.707107 0.000000 1.000000 0.000000 0.000000 1.000000 0.000000 0.000000 1.000000 0.000000 0.000000 1.000000 0.000000 0.000000 -0.707107 -0.707107 0.000000 -0.707107 -0.707107 0.000000 -0.707107 -0.707107 0.000000 -0.707107 -0.707107 0.000000 0.707107 -0.707107 0.000000 0.707107 -0.707107 0.000000 0.707107 -0.707107 0.000000 0.707107 -0.707107 0.000000 -1.000000 0.000000 0.000000 -1.000000 0.000000 0.000000 -1.000000 0.000000 0.000000 -1.000000 0.000000 0.000000 -0.707107 0.707107 0.000000 -0.707107 0.707107 0.000000 -0.707107 0.707107 0.000000 -0.707107 0.707107 0.000000 0.000000 0.000000 1.000000 0.000000 0.000000 1.000000 0.000000 0.000000 1.000000 0.000000 0.000000 1.000000 0.000000 0.000000 1.000000 0.000000 0.000000 1.000000 1.000000 0.000000 0.000000 1.000000 0.000000 0.000000 1.000000 0.000000 0.000000 1.000000 0.000000 0.000000 0.707107 -0.707107 0.000000 0.707107 -0.707107 0.000000 0.707107 -0.707107 0.000000 0.707107 -0.707107 0.000000 -0.685105 -0.728444 0.000000 -0.685105 -0.728444 0.000000 -0.685105 -0.728444 0.000000 -0.685105 -0.728444 0.000000 -1.000000 0.000000 0.000000 -1.000000 0.000000 0.000000 -1.000000 0.000000 0.000000 -1.000000 0.000000 0.000000 0.707107 0.707107 0.000000 0.707107 0.707107 0.000000 0.707107 0.707107 0.000000 0.707107 0.707107 0.000000 -0.707107 0.707107 0.000000 -0.707107 0.707107 0.000000 -0.707107 0.707107 0.000000 -0.707107 0.707107 0.000000 0.000000 0.000000 1.000000 0.000000 0.000000 1.000000 0.000000 0.000000 1.000000 0.000000 0.000000 1.000000 0.000000 0.000000 1.000000 0.000000 0.000000 1.000000 0.000000 0.000000 -1.000000 0.000000 0.119880 -0.992788 0.000000 0.000000 -1.000000 0.000000 0.173648 -0.984808 0.000000 0.236674 -0.971589 0.000000 0.342020 -0.939693 0.000000 0.347576 -0.937652 0.000000 0.450170 -0.892943 0.000000 0.500000 -0.866025 0.000000 0.542967 -0.839754 0.000000 0.642788 -0.766044 0.000000 0.624838 -0.780754 0.000000 0.695820 -0.718216 0.000000 0.766044 -0.642788 0.000000 0.759818 -0.650136 0.000000 0.816889 -0.576794 0.000000 0.866025 -0.500000 0.000000 0.866527 -0.499130 0.000000 0.939693 -0.342020 0.000000 0.942227 -0.334975 0.000000 0.984808 -0.173648 0.000000 0.986159 -0.165803 0.000000 1.000000 0.000000 0.000000 1.000000 0.000000 -0.000000 -1.000000 -0.000000 -0.000000 -1.000000 -0.000000 -0.000000 -0.984808 -0.173648 -0.000000 -0.986159 -0.165803 -0.000000 -0.942227 -0.334975 -0.000000 -0.939693 -0.342020 -0.000000 -0.866527 -0.499130 -0.000000 -0.866025 -0.500000 -0.000000 -0.816889 -0.576794 -0.000000 -0.766044 -0.642788 -0.000000 -0.759818 -0.650136 -0.000000 -0.695820 -0.718216 -0.000000 -0.642788 -0.766044 -0.000000 -0.624838 -0.780754 -0.000000 -0.542967 -0.839754 -0.000000 -0.500000 -0.866025 -0.000000 -0.450170 -0.892943 -0.000000 -0.342020 -0.939693 -0.000000 -0.347576 -0.937652 -0.000000 -0.236674 -0.971589 -0.000000 -0.173648 -0.984808 -0.000000 -0.119880 -0.992788 0.000000 0.000000 -1.000000 -0.000000 -0.000000 -1.000000 0.000000 0.000000 1.000000 0.000000 0.000000 1.000000 0.000000 0.000000 1.000000 0.000000 0.000000 1.000000 0.000000 0.000000 1.000000 0.000000 0.000000 1.000000 0.000000 0.000000 1.000000 0.000000 0.000000 1.000000 0.000000 0.000000 1.000000 0.000000 0.000000 1.000000 0.000000 -0.119880 0.992788 0.000000 -0.173648 0.984808 0.000000 -0.236674 0.971589 0.000000 -0.342020 0.939693 0.000000 -0.347576 0.937652 0.000000 -0.450170 0.892943 0.000000 -0.500000 0.866025 0.000000 -0.542967 0.839754 0.000000 -0.642788 0.766044 0.000000 -0.624838 0.780754 0.000000 -0.695820 0.718216 0.000000 -0.766044 0.642788 0.000000 -0.759818 0.650136 0.000000 -0.816889 0.576794 0.000000 -0.866025 0.500000 0.000000 -0.866527 0.499130 0.000000 -0.939693 0.342020 0.000000 -0.942227 0.334975 0.000000 -0.984808 0.173648 0.000000 -0.986159 0.165803 -0.000000 -1.000000 -0.000000 -0.000000 -1.000000 -0.000000 0.000000 1.000000 0.000000 0.000000 1.000000 0.000000 0.000000 0.984808 0.173648 0.000000 0.986159 0.165803 0.000000 0.942227 0.334975 0.000000 0.939693 0.342020 0.000000 0.866527 0.499130 0.000000 0.866025 0.500000 0.000000 0.816889 0.576794 0.000000 0.766044 0.642788 0.000000 0.759818 0.650136 0.000000 0.695820 0.718216 0.000000 0.642788 0.766044 0.000000 0.624838 0.780754 0.000000 0.542967 0.839754 0.000000 0.500000 0.866025 0.000000 0.450170 0.892943 0.000000 0.342020 0.939693 0.000000 0.347576 0.937652 0.000000 0.236674 0.971589 0.000000 0.173648 0.984808 0.000000 0.119880 0.992788 1.000000 0.000000 0.000000 1.000000 0.000000 0.000000 1.000000 0.000000 0.000000 1.000000 0.000000 0.000000 1.000000 0.000000 0.000000 1.000000 0.000000 0.000000 1.000000 0.000000 0.000000 1.000000 0.000000 0.000000 1.000000 0.000000 0.000000 1.000000 0.000000 0.000000 1.000000 0.000000 0.000000 1.000000 0.000000 0.000000 1.000000 0.000000 0.000000 1.000000 0.000000 0.000000 1.000000 0.000000 0.000000 1.000000 0.000000 0.000000 1.000000 0.000000 0.000000 1.000000 0.000000 0.000000 1.000000 0.000000 0.000000 1.000000 0.000000 0.000000 1.000000 0.000000 0.000000 1.000000 0.000000 0.000000 1.000000 0.000000 0.000000 1.000000 0.000000 0.000000 1.000000 0.000000 0.000000 1.000000 0.000000 0.000000 1.000000 0.000000 0.000000 1.000000 0.000000 0.000000 1.000000 0.000000 0.000000 1.000000 0.000000 0.000000 1.000000 0.000000 0.000000 1.000000 0.000000 0.000000 1.000000 0.000000 0.000000 1.000000 0.000000 0.000000 1.000000 0.000000 0.000000 1.000000 0.000000 0.000000 1.000000 0.000000 0.000000 1.000000 0.000000 0.000000 1.000000 0.000000 0.000000 1.000000 0.000000 0.000000 0.893049 -0.449959 0.000000 0.909632 -0.415415 0.000000 0.927025 -0.375000 0.000000 0.959493 -0.281733 0.000000 0.967344 -0.253469 0.000000 0.989821 -0.142315 0.000000 0.991802 -0.127782 0.000000 1.000000 0.000000 0.000000 1.000000 0.000000 0.000000 0.841254 -0.540641 0.000000 0.852359 -0.522956 0.000000 0.805764 -0.592237 0.000000 0.755750 -0.654861 0.000000 0.754437 -0.656373 0.000000 0.699756 -0.714382 0.000000 0.654861 -0.755750 0.000000 0.643401 -0.765530 0.000000 0.586580 -0.809891 0.000000 0.540641 -0.841254 0.000000 0.526945 -0.849899 0.000000 0.464508 -0.885569 0.000000 0.415415 -0.909632 0.000000 0.399840 -0.916585 0.000000 0.281733 -0.959493 0.000000 0.266283 -0.963895 0.000000 0.142315 -0.989821 0.000000 0.131222 -0.991353 0.000000 0.000000 -1.000000 0.000000 0.000000 -1.000000 0.000000 0.000000 -1.000000 0.000000 0.131222 -0.991353 0.000000 0.000000 -1.000000 0.000000 0.147757 -0.989024 0.000000 0.266283 -0.963895 0.000000 0.292270 -0.956336 0.000000 0.399840 -0.916585 0.000000 0.430367 -0.902654 0.000000 0.464508 -0.885569 0.000000 0.526945 -0.849899 0.000000 0.559017 -0.829156 0.000000 0.586580 -0.809891 0.000000 0.643401 -0.765530 0.000000 0.675395 -0.737456 0.000000 0.699756 -0.714382 0.000000 0.754437 -0.656373 0.000000 0.776946 -0.629568 0.000000 0.805764 -0.592237 0.000000 0.852359 -0.522956 0.000000 0.861441 -0.507858 0.000000 0.893049 -0.449959 0.000000 0.927025 -0.375000 0.000000 0.000000 0.000000 1.000000 0.000000 0.000000 1.000000 0.000000 0.000000 1.000000 0.000000 0.000000 1.000000 0.000000 0.000000 1.000000 0.000000 0.000000 1.000000 0.000000 0.000000 1.000000 0.000000 0.000000 1.000000 0.000000 0.000000 1.000000 0.000000 0.000000 1.000000 0.000000 0.000000 1.000000 0.000000 0.000000 1.000000 0.000000 0.000000 1.000000 0.000000 0.000000 1.000000 0.000000 0.000000 1.000000 0.000000 0.000000 1.000000 0.000000 0.000000 1.000000 0.000000 0.000000 1.000000 0.000000 0.000000 1.000000 0.000000 0.000000 1.000000 0.000000 0.000000 1.000000 0.000000 0.000000 1.000000 0.000000 0.000000 1.000000 0.000000 0.000000 1.000000 0.000000 0.000000 1.000000 0.000000 0.000000 1.000000 0.000000 0.000000 1.000000 0.000000 0.000000 1.000000 0.000000 0.000000 1.000000 0.000000 0.000000 1.000000 0.000000 0.000000 1.000000 0.000000 0.000000 1.000000 0.000000 0.000000 1.000000 0.000000 0.000000 1.000000 0.000000 0.000000 1.000000 0.000000 0.000000 1.000000 0.000000 0.000000 1.000000 0.000000 0.000000 1.000000 0.000000 0.000000 1.000000 0.000000 0.000000 1.000000 0.000000 0.000000 1.000000 0.000000 0.000000 1.000000 0.000000 0.000000 1.000000 0.000000 0.000000 1.000000 0.000000 0.000000 1.000000 0.000000 0.000000 1.000000 0.000000 0.000000 1.000000 0.000000 0.000000 1.000000 0.000000 0.000000 1.000000 0.000000 0.000000 1.000000 0.000000 0.000000 1.000000 0.000000 0.000000 1.000000 0.000000 0.000000 1.000000 0.000000 0.000000 1.000000 0.000000 0.000000 1.000000 0.000000 0.000000 1.000000 0.000000 0.000000 1.000000 0.000000 0.000000 1.000000 0.000000 0.000000 1.000000 0.000000 0.000000 1.000000 0.000000 0.000000 1.000000 0.000000 0.000000 1.000000 0.000000 0.000000 1.000000 0.000000 0.000000 1.000000 0.000000 0.000000 1.000000 0.000000 0.000000 1.000000 0.000000 0.000000 1.000000 0.000000 0.000000 1.000000 0.000000 0.000000 1.000000 0.000000 0.000000 1.000000 0.000000 0.000000 1.000000 0.000000 0.000000 1.000000 0.000000 0.000000 1.000000 0.000000 0.000000 1.000000 0.000000 0.000000 1.000000 0.000000 0.000000 1.000000 0.000000 0.000000 1.000000 0.000000 0.000000 1.000000 0.000000 0.000000 1.000000 0.000000 0.000000 1.000000 0.000000 0.000000 1.000000 0.000000 0.000000 1.000000 0.000000 0.000000 1.000000 0.000000 0.000000 1.000000 0.000000 0.000000 1.000000 0.000000 0.000000 1.000000 0.000000 0.000000 1.000000 0.000000 0.000000 1.000000 0.000000 0.000000 1.000000 0.000000 0.000000 1.000000 0.000000 0.000000 1.000000 0.000000 0.000000 1.000000 0.000000 0.000000 1.000000 0.000000 0.000000 1.000000 0.000000 0.000000 1.000000 0.000000 0.000000 1.000000 0.000000 0.000000 1.000000 0.000000 0.000000 1.000000 0.000000 0.000000 1.000000 0.000000 0.000000 1.000000 0.000000 0.000000 1.000000 0.000000 0.000000 1.000000 0.000000 0.000000 1.000000 0.000000 0.000000 1.000000 0.000000 0.000000 1.000000 0.000000 0.000000 1.000000 0.000000 0.000000 1.000000 0.000000 0.000000 1.000000 0.967344 0.253469 0.000000 0.959493 0.281733 0.000000 0.927025 0.375000 0.000000 0.909632 0.415415 0.000000 0.893049 0.449959 0.000000 0.841254 0.540641 0.000000 0.852359 0.522956 0.000000 0.805764 0.592237 0.000000 0.755750 0.654861 0.000000 0.754437 0.656373 0.000000 0.699756 0.714382 0.000000 0.654861 0.755750 0.000000 0.643401 0.765530 0.000000 0.586580 0.809891 0.000000 0.540641 0.841254 0.000000 0.526945 0.849899 0.000000 0.464508 0.885569 0.000000 0.415415 0.909632 0.000000 0.399840 0.916585 0.000000 0.281733 0.959493 0.000000 0.266283 0.963895 0.000000 0.142315 0.989821 0.000000 0.131222 0.991353 0.000000 0.000000 1.000000 0.000000 0.000000 1.000000 0.000000 0.989821 0.142315 0.000000 0.991802 0.127782 0.000000 1.000000 0.000000 0.000000 1.000000 0.000000 0.000000 0.927025 0.375000 0.000000 0.893049 0.449959 0.000000 0.861441 0.507858 0.000000 0.852359 0.522956 0.000000 0.805764 0.592237 0.000000 0.776946 0.629568 0.000000 0.754437 0.656373 0.000000 0.675395 0.737456 0.000000 0.699756 0.714382 0.000000 0.643401 0.765530 0.000000 0.559017 0.829156 0.000000 0.586580 0.809891 0.000000 0.526945 0.849899 0.000000 0.430367 0.902654 0.000000 0.464508 0.885569 0.000000 0.399840 0.916585 0.000000 0.292270 0.956336 0.000000 0.266283 0.963895 0.000000 0.147757 0.989024 0.000000 0.131222 0.991353 0.000000 0.000000 1.000000 0.000000 0.000000 1.000000 0.000000 0.000000 1.000000 0.000000 0.000000 1.000000 0.000000 0.000000 1.000000 0.000000 0.000000 1.000000 0.000000 0.000000 1.000000 0.000000 0.000000 1.000000 0.000000 0.000000 1.000000 0.000000 0.000000 1.000000 0.000000 0.000000 1.000000 0.000000 0.000000 1.000000 0.000000 0.000000 1.000000 0.000000 0.000000 1.000000 0.000000 0.000000 1.000000 0.000000 0.000000 1.000000 0.000000 0.000000 1.000000 0.000000 0.000000 1.000000 0.000000 0.000000 1.000000 0.000000 0.000000 1.000000 0.000000 0.000000 1.000000 0.000000 0.000000 1.000000 0.000000 0.000000 1.000000 0.000000 0.000000 1.000000 0.000000 0.000000 1.000000 0.000000 0.000000 1.000000 0.000000 0.000000 1.000000 0.000000 0.000000 1.000000 0.000000 0.000000 1.000000 0.000000 0.000000 1.000000 0.000000 0.000000 1.000000 0.000000 0.000000 1.000000 0.000000 0.000000 1.000000 0.000000 0.000000 1.000000 0.000000 0.000000 1.000000 0.000000 0.000000 1.000000 0.000000 0.000000 1.000000 0.000000 0.000000 1.000000 0.000000 0.000000 1.000000 0.000000 0.000000 1.000000 0.000000 0.000000 1.000000 0.000000 0.000000 1.000000 0.000000 0.000000 1.000000 0.000000 0.000000 1.000000 0.000000 0.000000 1.000000 0.000000 0.000000 1.000000 0.000000 0.000000 1.000000 0.000000 0.000000 1.000000 0.000000 0.000000 1.000000 0.000000 0.000000 1.000000 0.000000 0.000000 1.000000 0.000000 0.000000 1.000000 0.000000 0.000000 1.000000 0.000000 0.000000 1.000000 0.000000 0.000000 -1.000000 0.000000 0.000000 -1.000000 0.000000 0.000000 -1.000000 0.000000 0.000000 -1.000000 0.000000 0.000000 -1.000000 0.000000 0.000000 -1.000000 0.000000 0.000000 -1.000000 0.000000 0.000000 -1.000000 0.000000 0.000000 -1.000000 0.000000 0.000000 -1.000000 0.000000 0.000000 -1.000000 0.000000 0.000000 -1.000000 0.000000 0.000000 -1.000000 0.000000 0.000000 -1.000000 0.000000 0.000000 -1.000000 0.000000 0.000000 -1.000000 0.000000 0.000000 -1.000000 0.000000 0.000000 -1.000000 0.000000 0.000000 -1.000000 0.000000 0.000000 -1.000000 0.000000 0.000000 -1.000000 0.000000 0.000000 -1.000000 0.000000 0.000000 -1.000000 0.000000 0.000000 -1.000000 0.000000 0.000000 -1.000000 0.000000 0.000000 -1.000000 0.000000 0.000000 -1.000000 0.000000 0.000000 -1.000000 0.000000 0.000000 -1.000000 0.000000 0.000000 -1.000000 0.000000 0.000000 -1.000000 0.000000 0.000000 -1.000000 0.000000 0.000000 -1.000000 0.000000 0.000000 -1.000000 0.000000 0.000000 -1.000000 0.000000 0.000000 -1.000000 0.000000 0.000000 -1.000000 0.000000 0.000000 -1.000000 0.000000 0.000000 -1.000000 0.000000 0.000000 -1.000000 0.000000 0.000000 -1.000000 0.000000 0.000000 -1.000000 0.000000 0.000000 -1.000000 0.000000 0.000000 -1.000000 0.000000 0.000000 -1.000000 0.000000 0.000000 -1.000000 0.000000 0.000000 -1.000000 0.000000 0.000000 -1.000000 0.000000 0.000000 -1.000000 0.000000 0.000000 -1.000000 0.000000 0.000000 -1.000000 0.000000 0.000000 -1.000000 0.000000 -1.000000 0.000000 0.000000 -1.000000 0.000000 0.000000 -0.989821 -0.142315 0.000000 -0.989821 -0.142315 0.000000 -0.959493 -0.281733 0.000000 -0.959493 -0.281733 0.000000 -0.909632 -0.415415 0.000000 -0.909632 -0.415415 0.000000 -0.841254 -0.540641 0.000000 -0.841254 -0.540641 0.000000 -0.755750 -0.654861 0.000000 -0.755750 -0.654861 0.000000 -0.654861 -0.755750 0.000000 -0.654861 -0.755750 0.000000 -0.540641 -0.841254 0.000000 -0.540641 -0.841254 0.000000 -0.415415 -0.909632 0.000000 -0.415415 -0.909632 0.000000 -0.281733 -0.959493 0.000000 -0.281733 -0.959493 0.000000 -0.142315 -0.989821 0.000000 -0.142315 -0.989821 0.000000 -1.000000 0.000000 0.000000 -1.000000 0.000000 0.000000 -0.142315 0.989821 0.000000 -0.142315 0.989821 0.000000 -0.281733 0.959493 0.000000 -0.281733 0.959493 0.000000 -0.415415 0.909632 0.000000 -0.415415 0.909632 0.000000 -0.540641 0.841254 0.000000 -0.540641 0.841254 0.000000 -0.654861 0.755750 0.000000 -0.654861 0.755750 0.000000 -0.755750 0.654861 0.000000 -0.755750 0.654861 0.000000 -0.841254 0.540641 0.000000 -0.841254 0.540641 0.000000 -0.909632 0.415415 0.000000 -0.909632 0.415415 0.000000 -0.959493 0.281733 0.000000 -0.959493 0.281733 0.000000 -0.989821 0.142315 0.000000 -0.989821 0.142315 0.000000 0.000000 0.000000 -1.000000 0.000000 0.000000 -1.000000 0.000000 0.000000 -1.000000 0.000000 0.000000 -1.000000 0.000000 0.000000 -1.000000 0.000000 0.000000 -1.000000 0.000000 0.000000 -1.000000 0.000000 0.000000 -1.000000 0.000000 0.000000 -1.000000 0.000000 0.000000 -1.000000 0.000000 0.000000 -1.000000 0.000000 0.000000 -1.000000 0.000000 0.000000 -1.000000 0.000000 0.000000 -1.000000 0.000000 0.000000 -1.000000 0.000000 0.000000 -1.000000 0.000000 0.000000 -1.000000 0.000000 0.000000 -1.000000 0.000000 0.000000 -1.000000 0.000000 0.000000 -1.000000 0.000000 0.000000 -1.000000 0.000000 0.000000 -1.000000 0.000000 0.000000 -1.000000 0.000000 0.000000 -1.000000 0.000000 0.000000 -1.000000 0.000000 0.000000 -1.000000 0.000000 0.000000 -1.000000 0.000000 0.000000 -1.000000 0.000000 0.000000 -1.000000 0.000000 0.000000 -1.000000 0.000000 0.000000 -1.000000 0.000000 0.000000 -1.000000 0.000000 0.000000 -1.000000 0.000000 0.000000 -1.000000 0.000000 0.000000 -1.000000 0.000000 0.000000 -1.000000 0.000000 0.000000 -1.000000 0.000000 0.000000 -1.000000 0.000000 0.000000 -1.000000 0.000000 0.000000 -1.000000 0.000000 0.000000 -1.000000 0.000000 0.000000 -1.000000 0.000000 0.000000 -1.000000 0.000000 0.000000 -1.000000 0.000000 0.000000 -1.000000 0.000000 0.000000 -1.000000 0.000000 0.000000 -1.000000 0.000000 0.000000 -1.000000</float_array>
          <technique_common>
            <accessor source="#base_link-mesh-normals-array" count="1262" stride="3">
              <param name="X" type="float"/>
              <param name="Y" type="float"/>
              <param name="Z" type="float"/>
            </accessor>
          </technique_common>
        </source>
        <vertices id="base_link-mesh-vertices">
          <input semantic="POSITION" source="#base_link-mesh-positions"/>
        </vertices>
        <triangles material="mat_00_Body1__Plastic_-_Glossy__Black_" count="1400">
          <input semantic="VERTEX" source="#base_link-mesh-vertices" offset="0"/>
          <input semantic="NORMAL" source="#base_link-mesh-normals" offset="1"/>
          <p>1 0 50 1 0 2 0 2 50 1 48 3 0 2 48 3 23 4 23 4 48 3 94 5 23 4 94 5 22 6 22 6 94 5 92 7 22 6 92 7 21 8 21 8 92 7 90 9 21 8 90 9 20 10 20 10 90 9 88 11 20 10 88 11 19 12 19 12 88 11 86 13 19 12 86 13 18 14 18 14 86 13 84 15 18 14 84 15 17 16 17 16 84 15 82 17 17 16 82 17 16 18 16 18 82 17 80 19 16 18 80 19 15 20 15 20 80 19 78 21 15 20 78 21 14 22 14 22 78 21 76 23 14 22 76 23 13 24 13 24 76 23 74 25 13 24 74 25 12 26 12 26 74 25 72 27 12 26 72 27 11 28 11 28 72 27 70 29 11 28 70 29 10 30 10 30 70 29 68 31 10 30 68 31 9 32 9 32 68 31 66 33 9 32 66 33 8 34 8 34 66 33 64 35 8 34 64 35 7 36 7 36 64 35 62 37 7 36 62 37 6 38 6 38 62 37 60 39 6 38 60 39 5 40 5 40 60 39 58 41 5 40 58 41 4 42 4 42 58 41 56 43 4 42 56 43 3 44 3 44 56 43 54 45 3 44 54 45 2 46 2 46 54 45 52 47 2 46 52 47 1 0 1 0 52 47 50 1 25 48 95 49 24 50 24 50 95 49 49 51 24 50 49 51 47 52 47 52 49 51 51 53 47 52 51 53 46 54 46 54 51 53 53 55 46 54 53 55 45 56 45 56 53 55 55 57 45 56 55 57 44 58 44 58 55 57 57 59 44 58 57 59 43 60 43 60 57 59 59 61 43 60 59 61 42 62 42 62 59 61 61 63 42 62 61 63 41 64 41 64 61 63 63 65 41 64 63 65 40 66 40 66 63 65 65 67 40 66 65 67 39 68 39 68 65 67 67 69 39 68 67 69 38 70 38 70 67 69 69 71 38 70 69 71 37 72 37 72 69 71 71 73 37 72 71 73 36 74 36 74 71 73 73 75 36 74 73 75 35 76 35 76 73 75 75 77 35 76 75 77 34 78 34 78 75 77 77 79 34 78 77 79 33 80 33 80 77 79 79 81 33 80 79 81 32 82 32 82 79 81 81 83 32 82 81 83 31 84 31 84 81 83 83 85 31 84 83 85 30 86 30 86 83 85 85 87 30 86 85 87 29 88 29 88 85 87 87 89 29 88 87 89 28 90 28 90 87 89 89 91 28 90 89 91 27 92 27 92 89 91 91 93 27 92 91 93 26 94 26 94 91 93 93 95 26 94 93 95 25 48 25 48 93 95 95 49 48 3 49 51 94 5 94 5 49 51 95 49 94 5 95 49 92 7 92 7 95 49 93 95 92 7 93 95 90 9 90 9 93 95 91 93 90 9 91 93 88 11 88 11 91 93 89 91 88 11 89 91 86 13 86 13 89 91 87 89 86 13 87 89 84 15 84 15 87 89 85 87 84 15 85 87 82 17 82 17 85 87 83 85 82 17 83 85 80 19 80 19 83 85 81 83 80 19 81 83 78 21 78 21 81 83 79 81 78 21 79 81 76 23 76 23 79 81 77 79 76 23 77 79 74 25 74 25 77 79 75 77 74 25 75 77 72 27 72 27 75 77 73 75 72 27 73 75 70 29 70 29 73 75 71 73 70 29 71 73 68 31 68 31 71 73 69 71 68 31 69 71 66 33 66 33 69 71 67 69 66 33 67 69 64 35 64 35 67 69 65 67 64 35 65 67 62 37 62 37 65 67 63 65 62 37 63 65 60 39 60 39 63 65 61 63 60 39 61 63 58 41 58 41 61 63 59 61 58 41 59 61 56 43 56 43 59 61 57 59 56 43 57 59 54 45 54 45 57 59 55 57 54 45 55 57 52 47 52 47 55 57 53 55 52 47 53 55 50 1 50 1 53 55 51 53 50 1 51 53 48 3 48 3 51 53 49 51 23 96 13 97 0 98 0 98 13 97 12 99 0 98 12 99 1 100 1 100 12 99 11 101 1 100 11 101 2 102 2 102 11 101 10 103 2 102 10 103 3 104 3 104 10 103 9 105 3 104 9 105 4 106 4 106 9 105 8 107 4 106 8 107 5 108 5 108 8 107 7 109 5 108 7 109 6 110 13 97 23 96 14 111 14 111 23 96 22 112 14 111 22 112 15 113 15 113 22 112 21 114 15 113 21 114 16 115 16 115 21 114 20 116 16 115 20 116 17 117 17 117 20 116 19 118 17 117 19 118 18 119 97 120 146 121 96 122 96 122 146 121 144 123 96 122 144 123 119 124 119 124 144 123 190 125 119 124 190 125 118 126 118 126 190 125 188 127 118 126 188 127 117 128 117 128 188 127 186 129 117 128 186 129 116 130 116 130 186 129 184 131 116 130 184 131 115 132 115 132 184 131 182 133 115 132 182 133 114 134 114 134 182 133 180 135 114 134 180 135 113 136 113 136 180 135 178 137 113 136 178 137 112 138 112 138 178 137 176 139 112 138 176 139 111 140 111 140 176 139 174 141 111 140 174 141 110 142 110 142 174 141 172 143 110 142 172 143 109 144 109 144 172 143 170 145 109 144 170 145 108 146 108 146 170 145 168 147 108 146 168 147 107 148 107 148 168 147 166 149 107 148 166 149 106 150 106 150 166 149 164 151 106 150 164 151 105 152 105 152 164 151 162 153 105 152 162 153 104 154 104 154 162 153 160 155 104 154 160 155 103 156 103 156 160 155 158 157 103 156 158 157 102 158 102 158 158 157 156 159 102 158 156 159 101 160 101 160 156 159 154 161 101 160 154 161 100 162 100 162 154 161 152 163 100 162 152 163 99 164 99 164 152 163 150 165 99 164 150 165 98 166 98 166 150 165 148 167 98 166 148 167 97 120 97 120 148 167 146 121 121 168 191 169 120 170 120 170 191 169 145 171 120 170 145 171 143 172 143 172 145 171 147 173 143 172 147 173 142 174 142 174 147 173 149 175 142 174 149 175 141 176 141 176 149 175 151 177 141 176 151 177 140 178 140 178 151 177 153 179 140 178 153 179 139 180 139 180 153 179 155 181 139 180 155 181 138 182 138 182 155 181 157 183 138 182 157 183 137 184 137 184 157 183 159 185 137 184 159 185 136 186 136 186 159 185 161 187 136 186 161 187 135 188 135 188 161 187 163 189 135 188 163 189 134 190 134 190 163 189 165 191 134 190 165 191 133 192 133 192 165 191 167 193 133 192 167 193 132 194 132 194 167 193 169 195 132 194 169 195 131 196 131 196 169 195 171 197 131 196 171 197 130 198 130 198 171 197 173 199 130 198 173 199 129 200 129 200 173 199 175 201 129 200 175 201 128 202 128 202 175 201 177 203 128 202 177 203 127 204 127 204 177 203 179 205 127 204 179 205 126 206 126 206 179 205 181 207 126 206 181 207 125 208 125 208 181 207 183 209 125 208 183 209 124 210 124 210 183 209 185 211 124 210 185 211 123 212 123 212 185 211 187 213 123 212 187 213 122 214 122 214 187 213 189 215 122 214 189 215 121 168 121 168 189 215 191 169 144 123 145 171 190 125 190 125 145 171 191 169 190 125 191 169 188 127 188 127 191 169 189 215 188 127 189 215 186 129 186 129 189 215 187 213 186 129 187 213 184 131 184 131 187 213 185 211 184 131 185 211 182 133 182 133 185 211 183 209 182 133 183 209 180 135 180 135 183 209 181 207 180 135 181 207 178 137 178 137 181 207 179 205 178 137 179 205 176 139 176 139 179 205 177 203 176 139 177 203 174 141 174 141 177 203 175 201 174 141 175 201 172 143 172 143 175 201 173 199 172 143 173 199 170 145 170 145 173 199 171 197 170 145 171 197 168 147 168 147 171 197 169 195 168 147 169 195 166 149 166 149 169 195 167 193 166 149 167 193 164 151 164 151 167 193 165 191 164 151 165 191 162 153 162 153 165 191 163 189 162 153 163 189 160 155 160 155 163 189 161 187 160 155 161 187 158 157 158 157 161 187 159 185 158 157 159 185 156 159 156 159 159 185 157 183 156 159 157 183 154 161 154 161 157 183 155 181 154 161 155 181 152 163 152 163 155 181 153 179 152 163 153 179 150 165 150 165 153 179 151 177 150 165 151 177 148 167 148 167 151 177 149 175 148 167 149 175 146 121 146 121 149 175 147 173 146 121 147 173 144 123 144 123 147 173 145 171 119 216 109 217 96 218 96 218 109 217 108 219 96 218 108 219 97 220 97 220 108 219 107 221 97 220 107 221 98 222 98 222 107 221 106 223 98 222 106 223 99 224 99 224 106 223 105 225 99 224 105 225 100 226 100 226 105 225 104 227 100 226 104 227 101 228 101 228 104 227 103 229 101 228 103 229 102 230 109 217 119 216 110 231 110 231 119 216 118 232 110 231 118 232 111 233 111 233 118 232 117 234 111 233 117 234 112 235 112 235 117 234 116 236 112 235 116 236 113 237 113 237 116 236 115 238 113 237 115 238 114 239 193 240 242 241 192 242 192 242 242 241 240 243 192 242 240 243 215 244 215 244 240 243 286 245 215 244 286 245 214 246 214 246 286 245 284 247 214 246 284 247 213 248 213 248 284 247 282 249 213 248 282 249 212 250 212 250 282 249 280 251 212 250 280 251 211 252 211 252 280 251 278 253 211 252 278 253 210 254 210 254 278 253 276 255 210 254 276 255 209 256 209 256 276 255 274 257 209 256 274 257 208 258 208 258 274 257 272 259 208 258 272 259 207 260 207 260 272 259 270 261 207 260 270 261 206 262 206 262 270 261 268 263 206 262 268 263 205 264 205 264 268 263 266 265 205 264 266 265 204 266 204 266 266 265 264 267 204 266 264 267 203 268 203 268 264 267 262 269 203 268 262 269 202 270 202 270 262 269 260 271 202 270 260 271 201 272 201 272 260 271 258 273 201 272 258 273 200 274 200 274 258 273 256 275 200 274 256 275 199 276 199 276 256 275 254 277 199 276 254 277 198 278 198 278 254 277 252 279 198 278 252 279 197 280 197 280 252 279 250 281 197 280 250 281 196 282 196 282 250 281 248 283 196 282 248 283 195 284 195 284 248 283 246 285 195 284 246 285 194 286 194 286 246 285 244 287 194 286 244 287 193 240 193 240 244 287 242 241 217 288 287 289 216 290 216 290 287 289 241 291 216 290 241 291 239 292 239 292 241 291 243 293 239 292 243 293 238 294 238 294 243 293 245 295 238 294 245 295 237 296 237 296 245 295 247 297 237 296 247 297 236 298 236 298 247 297 249 299 236 298 249 299 235 300 235 300 249 299 251 301 235 300 251 301 234 302 234 302 251 301 253 303 234 302 253 303 233 304 233 304 253 303 255 305 233 304 255 305 232 306 232 306 255 305 257 307 232 306 257 307 231 308 231 308 257 307 259 309 231 308 259 309 230 310 230 310 259 309 261 311 230 310 261 311 229 312 229 312 261 311 263 313 229 312 263 313 228 314 228 314 263 313 265 315 228 314 265 315 227 316 227 316 265 315 267 317 227 316 267 317 226 318 226 318 267 317 269 319 226 318 269 319 225 320 225 320 269 319 271 321 225 320 271 321 224 322 224 322 271 321 273 323 224 322 273 323 223 324 223 324 273 323 275 325 223 324 275 325 222 326 222 326 275 325 277 327 222 326 277 327 221 328 221 328 277 327 279 329 221 328 279 329 220 330 220 330 279 329 281 331 220 330 281 331 219 332 219 332 281 331 283 333 219 332 283 333 218 334 218 334 283 333 285 335 218 334 285 335 217 288 217 288 285 335 287 289 240 243 241 291 286 245 286 245 241 291 287 289 286 245 287 289 284 247 284 247 287 289 285 335 284 247 285 335 282 249 282 249 285 335 283 333 282 249 283 333 280 251 280 251 283 333 281 331 280 251 281 331 278 253 278 253 281 331 279 329 278 253 279 329 276 255 276 255 279 329 277 327 276 255 277 327 274 257 274 257 277 327 275 325 274 257 275 325 272 259 272 259 275 325 273 323 272 259 273 323 270 261 270 261 273 323 271 321 270 261 271 321 268 263 268 263 271 321 269 319 268 263 269 319 266 265 266 265 269 319 267 317 266 265 267 317 264 267 264 267 267 317 265 315 264 267 265 315 262 269 262 269 265 315 263 313 262 269 263 313 260 271 260 271 263 313 261 311 260 271 261 311 258 273 258 273 261 311 259 309 258 273 259 309 256 275 256 275 259 309 257 307 256 275 257 307 254 277 254 277 257 307 255 305 254 277 255 305 252 279 252 279 255 305 253 303 252 279 253 303 250 281 250 281 253 303 251 301 250 281 251 301 248 283 248 283 251 301 249 299 248 283 249 299 246 285 246 285 249 299 247 297 246 285 247 297 244 287 244 287 247 297 245 295 244 287 245 295 242 241 242 241 245 295 243 293 242 241 243 293 240 243 240 243 243 293 241 291 215 336 205 337 192 338 192 338 205 337 204 339 192 338 204 339 193 340 193 340 204 339 203 341 193 340 203 341 194 342 194 342 203 341 202 343 194 342 202 343 195 344 195 344 202 343 201 345 195 344 201 345 196 346 196 346 201 345 200 347 196 346 200 347 197 348 197 348 200 347 199 349 197 348 199 349 198 350 205 337 215 336 206 351 206 351 215 336 214 352 206 351 214 352 207 353 207 353 214 352 213 354 207 353 213 354 208 355 208 355 213 354 212 356 208 355 212 356 209 357 209 357 212 356 211 358 209 357 211 358 210 359 289 360 338 361 288 362 288 362 338 361 336 363 288 362 336 363 311 364 311 364 336 363 382 365 311 364 382 365 310 366 310 366 382 365 380 367 310 366 380 367 309 368 309 368 380 367 378 369 309 368 378 369 308 370 308 370 378 369 376 371 308 370 376 371 307 372 307 372 376 371 374 373 307 372 374 373 306 374 306 374 374 373 372 375 306 374 372 375 305 376 305 376 372 375 370 377 305 376 370 377 304 378 304 378 370 377 368 379 304 378 368 379 303 380 303 380 368 379 366 381 303 380 366 381 302 382 302 382 366 381 364 383 302 382 364 383 301 384 301 384 364 383 362 385 301 384 362 385 300 386 300 386 362 385 360 387 300 386 360 387 299 388 299 388 360 387 358 389 299 388 358 389 298 390 298 390 358 389 356 391 298 390 356 391 297 392 297 392 356 391 354 393 297 392 354 393 296 394 296 394 354 393 352 395 296 394 352 395 295 396 295 396 352 395 350 397 295 396 350 397 294 398 294 398 350 397 348 399 294 398 348 399 293 400 293 400 348 399 346 401 293 400 346 401 292 402 292 402 346 401 344 403 292 402 344 403 291 404 291 404 344 403 342 405 291 404 342 405 290 406 290 406 342 405 340 407 290 406 340 407 289 360 289 360 340 407 338 361 313 408 383 409 312 410 312 410 383 409 337 411 312 410 337 411 335 412 335 412 337 411 339 413 335 412 339 413 334 414 334 414 339 413 341 415 334 414 341 415 333 416 333 416 341 415 343 417 333 416 343 417 332 418 332 418 343 417 345 419 332 418 345 419 331 420 331 420 345 419 347 421 331 420 347 421 330 422 330 422 347 421 349 423 330 422 349 423 329 424 329 424 349 423 351 425 329 424 351 425 328 426 328 426 351 425 353 427 328 426 353 427 327 428 327 428 353 427 355 429 327 428 355 429 326 430 326 430 355 429 357 431 326 430 357 431 325 432 325 432 357 431 359 433 325 432 359 433 324 434 324 434 359 433 361 435 324 434 361 435 323 436 323 436 361 435 363 437 323 436 363 437 322 438 322 438 363 437 365 439 322 438 365 439 321 440 321 440 365 439 367 441 321 440 367 441 320 442 320 442 367 441 369 443 320 442 369 443 319 444 319 444 369 443 371 445 319 444 371 445 318 446 318 446 371 445 373 447 318 446 373 447 317 448 317 448 373 447 375 449 317 448 375 449 316 450 316 450 375 449 377 451 316 450 377 451 315 452 315 452 377 451 379 453 315 452 379 453 314 454 314 454 379 453 381 455 314 454 381 455 313 408 313 408 381 455 383 409 336 363 337 411 382 365 382 365 337 411 383 409 382 365 383 409 380 367 380 367 383 409 381 455 380 367 381 455 378 369 378 369 381 455 379 453 378 369 379 453 376 371 376 371 379 453 377 451 376 371 377 451 374 373 374 373 377 451 375 449 374 373 375 449 372 375 372 375 375 449 373 447 372 375 373 447 370 377 370 377 373 447 371 445 370 377 371 445 368 379 368 379 371 445 369 443 368 379 369 443 366 381 366 381 369 443 367 441 366 381 367 441 364 383 364 383 367 441 365 439 364 383 365 439 362 385 362 385 365 439 363 437 362 385 363 437 360 387 360 387 363 437 361 435 360 387 361 435 358 389 358 389 361 435 359 433 358 389 359 433 356 391 356 391 359 433 357 431 356 391 357 431 354 393 354 393 357 431 355 429 354 393 355 429 352 395 352 395 355 429 353 427 352 395 353 427 350 397 350 397 353 427 351 425 350 397 351 425 348 399 348 399 351 425 349 423 348 399 349 423 346 401 346 401 349 423 347 421 346 401 347 421 344 403 344 403 347 421 345 419 344 403 345 419 342 405 342 405 345 419 343 417 342 405 343 417 340 407 340 407 343 417 341 415 340 407 341 415 338 361 338 361 341 415 339 413 338 361 339 413 336 363 336 363 339 413 337 411 311 456 301 457 288 458 288 458 301 457 300 459 288 458 300 459 289 460 289 460 300 459 299 461 289 460 299 461 290 462 290 462 299 461 298 463 290 462 298 463 291 464 291 464 298 463 297 465 291 464 297 465 292 466 292 466 297 465 296 467 292 466 296 467 293 468 293 468 296 467 295 469 293 468 295 469 294 470 301 457 311 456 302 471 302 471 311 456 310 472 302 471 310 472 303 473 303 473 310 472 309 474 303 473 309 474 304 475 304 475 309 474 308 476 304 475 308 476 305 477 305 477 308 476 307 478 305 477 307 478 306 479 384 480 385 481 387 482 387 482 385 481 386 483 401 484 388 485 400 486 400 486 388 485 389 487 400 486 389 487 399 488 399 488 389 487 390 489 399 488 390 489 398 490 398 490 390 489 391 491 398 490 391 491 397 492 397 492 391 491 392 493 397 492 392 493 396 494 396 494 392 493 393 495 396 494 393 495 395 496 395 496 393 495 394 497 395 496 394 497 387 482 387 482 394 497 384 480 402 498 388 485 403 499 403 499 388 485 401 484 421 500 404 501 420 502 420 502 404 501 405 503 420 502 405 503 419 504 419 504 405 503 406 505 419 504 406 505 418 506 418 506 406 505 407 507 418 506 407 507 417 508 417 508 407 507 408 509 417 508 408 509 416 510 416 510 408 509 409 511 416 510 409 511 415 512 415 512 409 511 410 513 415 512 410 513 414 514 414 514 410 513 411 515 414 514 411 515 413 516 413 516 411 515 412 517 413 516 412 517 403 499 403 499 412 517 402 498 422 518 404 501 423 519 423 519 404 501 421 500 424 520 422 521 425 522 425 522 422 521 423 523 426 524 424 525 427 526 427 526 424 525 425 527 428 528 426 529 429 530 429 530 426 529 427 531 430 532 428 533 431 534 431 534 428 533 429 535 445 536 432 537 444 538 444 538 432 537 433 539 444 538 433 539 443 540 443 540 433 539 434 541 443 540 434 541 442 542 442 542 434 541 435 543 442 542 435 543 441 544 441 544 435 543 436 545 441 544 436 545 440 546 440 546 436 545 437 547 440 546 437 547 439 548 439 548 437 547 438 549 439 548 438 549 431 534 431 534 438 549 430 532 446 550 432 537 447 551 447 551 432 537 445 536 448 552 446 553 449 554 449 554 446 553 447 555 450 556 448 557 451 558 451 558 448 557 449 559 452 560 450 561 453 562 453 562 450 561 451 563 467 564 454 565 466 566 466 566 454 565 455 567 466 566 455 567 465 568 465 568 455 567 456 569 465 568 456 569 464 570 464 570 456 569 457 571 464 570 457 571 463 572 463 572 457 571 458 573 463 572 458 573 462 574 462 574 458 573 459 575 462 574 459 575 461 576 461 576 459 575 460 577 461 576 460 577 453 562 453 562 460 577 452 560 468 578 454 565 469 579 469 579 454 565 467 564 470 580 468 581 471 582 471 582 468 581 469 583 472 584 470 585 473 586 473 586 470 585 471 587 386 483 385 481 487 588 487 588 385 481 474 589 487 588 474 589 486 590 486 590 474 589 475 591 486 590 475 591 485 592 485 592 475 591 476 593 485 592 476 593 484 594 484 594 476 593 477 595 484 594 477 595 483 596 483 596 477 595 478 597 483 596 478 597 482 598 482 598 478 597 479 599 482 598 479 599 481 600 481 600 479 599 480 601 481 600 480 601 473 586 473 586 480 601 472 584 487 602 473 603 386 604 386 604 473 603 464 605 386 604 464 605 463 606 473 603 487 602 481 607 481 607 487 602 486 608 481 607 486 608 482 609 482 609 486 608 485 610 482 609 485 610 483 611 483 611 485 610 484 612 471 613 467 614 473 603 473 603 467 614 466 615 473 603 466 615 465 616 471 613 469 617 467 614 465 616 464 605 473 603 386 604 463 606 387 618 387 618 463 606 462 619 387 618 462 619 461 620 453 621 396 622 461 620 461 620 396 622 395 623 461 620 395 623 387 618 451 624 445 625 453 621 453 621 445 625 397 626 453 621 397 626 396 622 449 627 447 628 451 624 451 624 447 628 445 625 444 629 399 630 445 625 445 625 399 630 398 631 445 625 398 631 397 626 443 632 401 633 444 629 444 629 401 633 400 634 444 629 400 634 399 630 443 632 442 635 401 633 401 633 442 635 403 636 403 636 442 635 421 637 403 636 421 637 413 638 413 638 421 637 420 639 413 638 420 639 414 640 414 640 420 639 419 641 414 640 419 641 415 642 415 642 419 641 418 643 415 642 418 643 416 644 416 644 418 643 417 645 442 635 441 646 421 637 421 637 441 646 440 647 421 637 440 647 439 648 439 648 431 649 421 637 421 637 431 649 423 650 423 650 431 649 429 651 423 650 429 651 425 652 425 652 429 651 427 653 488 654 489 655 491 656 491 656 489 655 490 657 492 658 488 659 493 660 493 660 488 659 491 661 494 662 492 663 495 664 495 664 492 663 493 665 496 666 494 667 497 668 497 668 494 667 495 669 498 670 496 671 499 672 499 672 496 671 497 673 489 674 498 675 490 676 490 676 498 675 499 677 491 678 490 679 495 680 495 680 490 679 499 681 495 680 499 681 497 682 495 680 493 683 491 678 500 684 501 685 503 686 503 686 501 685 502 687 504 688 500 689 505 690 505 690 500 689 503 691 506 692 504 693 507 694 507 694 504 693 505 695 508 696 506 697 509 698 509 698 506 697 507 699 510 700 508 701 511 702 511 702 508 701 509 703 501 704 510 705 502 706 502 706 510 705 511 707 502 708 511 709 503 710 503 710 511 709 505 711 505 711 511 709 507 712 507 712 511 709 509 713 512 714 513 715 535 716 535 716 513 715 534 717 534 717 513 715 514 718 534 717 514 718 533 719 533 719 514 718 515 720 533 719 515 720 516 721 533 719 516 721 532 722 532 722 516 721 517 723 532 722 517 723 531 724 531 724 517 723 518 725 531 724 518 725 519 726 531 724 519 726 530 727 530 727 519 726 520 728 530 727 520 728 521 729 530 727 521 729 529 730 529 730 521 729 522 731 529 730 522 731 528 732 528 732 522 731 523 733 528 732 523 733 527 734 527 734 523 733 524 735 527 734 524 735 526 736 526 736 524 735 525 737 559 738 536 739 558 740 558 740 536 739 537 741 558 740 537 741 538 742 558 740 538 742 557 743 557 743 538 742 539 744 557 743 539 744 556 745 556 745 539 744 540 746 556 745 540 746 555 747 555 747 540 746 541 748 555 747 541 748 542 749 555 747 542 749 554 750 554 750 542 749 543 751 554 750 543 751 544 752 554 750 544 752 553 753 553 753 544 752 545 754 553 753 545 754 552 755 552 755 545 754 546 756 552 755 546 756 547 757 552 755 547 757 551 758 551 758 547 757 548 759 551 758 548 759 550 760 550 760 548 759 549 761 561 762 563 763 560 764 560 764 563 763 564 765 560 764 564 765 567 766 567 766 564 765 566 767 566 767 564 765 565 768 561 762 562 769 563 763 568 770 569 771 567 766 567 766 569 771 560 764 567 766 570 772 568 770 568 770 570 772 591 773 591 773 570 772 571 774 591 773 571 774 590 775 590 775 571 774 572 776 590 775 572 776 573 777 590 775 573 777 589 778 589 778 573 777 574 779 589 778 574 779 588 780 588 780 574 779 575 781 588 780 575 781 576 782 588 780 576 782 587 783 587 783 576 782 577 784 587 783 577 784 578 785 587 783 578 785 586 786 586 786 578 785 579 787 586 786 579 787 585 788 585 788 579 787 580 789 585 788 580 789 584 790 584 790 580 789 581 791 584 790 581 791 583 792 583 792 581 791 582 793 613 794 592 795 612 796 612 796 592 795 593 797 612 796 593 797 594 798 612 796 594 798 611 799 611 799 594 798 595 800 611 799 595 800 610 801 610 801 595 800 596 802 610 801 596 802 609 803 609 803 596 802 597 804 609 803 597 804 598 805 609 803 598 805 608 806 608 806 598 805 599 807 608 806 599 807 600 808 608 806 600 808 607 809 607 809 600 808 601 810 607 809 601 810 606 811 606 811 601 810 602 812 606 811 602 812 603 813 606 811 603 813 605 814 605 814 603 813 604 815 605 814 604 815 569 771 569 771 604 815 560 764 612 816 584 817 613 818 613 818 584 817 583 819 613 818 583 819 526 820 526 820 583 819 559 821 526 820 559 821 527 822 527 822 559 821 558 823 527 822 558 823 528 824 528 824 558 823 557 825 528 824 557 825 529 826 529 826 557 825 556 827 529 826 556 827 530 828 530 828 556 827 535 829 530 828 535 829 531 830 531 830 535 829 532 831 532 831 535 829 533 832 533 832 535 829 534 833 584 817 612 816 585 834 585 834 612 816 611 835 585 834 611 835 586 836 586 836 611 835 610 837 586 836 610 837 587 838 587 838 610 837 568 839 587 838 568 839 588 840 588 840 568 839 589 841 589 841 568 839 590 842 590 842 568 839 591 843 610 837 609 844 568 839 568 839 609 844 569 845 569 845 609 844 608 846 569 845 608 846 607 847 607 847 606 848 569 845 569 845 606 848 605 849 556 827 555 850 535 829 535 829 555 850 550 851 550 851 555 850 554 852 550 851 554 852 553 853 553 853 552 854 550 851 550 851 552 854 551 855 604 856 622 857 560 858 560 858 622 857 623 859 560 858 623 859 561 860 561 860 623 859 624 861 561 860 624 861 562 862 562 862 624 861 625 863 562 862 625 863 563 864 622 857 604 856 621 865 621 865 604 856 603 866 621 865 603 866 602 867 621 865 602 867 620 868 620 868 602 867 601 869 620 868 601 869 600 870 620 868 600 870 619 871 619 871 600 870 599 872 619 871 599 872 598 873 619 871 598 873 618 874 618 874 598 873 597 875 618 874 597 875 596 876 618 874 596 876 617 877 617 877 596 876 595 878 617 877 595 878 616 879 616 879 595 878 594 880 616 879 594 880 615 881 615 881 594 880 593 882 615 881 593 882 614 883 614 883 593 882 592 884 525 885 524 886 633 887 633 887 524 886 632 888 632 888 524 886 523 889 632 888 523 889 631 890 631 890 523 889 522 891 631 890 522 891 630 892 630 892 522 891 521 893 630 892 521 893 520 894 630 892 520 894 629 895 629 895 520 894 519 896 629 895 519 896 518 897 629 895 518 897 628 898 628 898 518 897 517 899 628 898 517 899 516 900 628 898 516 900 627 901 627 901 516 900 515 902 627 901 515 902 514 903 627 901 514 903 626 904 626 904 514 903 513 905 626 904 513 905 512 906 384 907 402 908 385 909 385 909 402 908 412 910 385 909 412 910 474 911 474 911 412 910 411 912 474 911 411 912 475 913 475 913 411 912 410 914 475 913 410 914 476 915 476 915 410 914 535 916 476 915 535 916 477 917 477 917 535 916 478 918 478 918 535 916 479 919 479 919 535 916 550 920 479 919 550 920 500 921 500 921 550 920 501 922 501 922 550 920 641 923 501 922 641 923 642 924 394 925 393 926 384 907 384 907 393 926 392 927 384 907 392 927 391 928 391 928 390 929 384 907 384 907 390 929 389 930 384 907 389 930 388 931 388 931 402 908 384 907 410 914 409 932 535 916 535 916 409 932 408 933 535 916 408 933 407 934 407 934 406 935 535 916 535 916 406 935 405 936 535 916 405 936 404 937 404 937 422 938 535 916 535 916 422 938 633 939 535 916 633 939 632 940 424 941 654 942 422 938 422 938 654 942 655 943 422 938 655 943 665 944 665 944 655 943 656 945 665 944 656 945 657 946 654 942 424 941 446 947 446 947 424 941 426 948 446 947 426 948 432 949 432 949 426 948 433 950 433 950 426 948 434 951 434 951 426 948 435 952 435 952 426 948 436 953 436 953 426 948 437 954 437 954 426 948 438 955 438 955 426 948 430 956 430 956 426 948 428 957 446 947 448 958 654 942 654 942 448 958 496 959 654 942 496 959 653 960 653 960 496 959 498 961 653 960 498 961 489 962 450 963 452 964 448 958 448 958 452 964 460 965 448 958 460 965 459 966 459 966 458 967 448 958 448 958 458 967 457 968 448 958 457 968 456 969 456 969 455 970 448 958 448 958 455 970 454 971 448 958 454 971 468 972 448 958 468 972 496 959 496 959 468 972 470 973 496 959 470 973 494 974 494 974 470 973 492 975 492 975 470 973 472 976 492 975 472 976 480 977 479 919 500 921 480 977 480 977 500 921 504 978 480 977 504 978 492 975 492 975 504 978 488 979 488 979 504 978 489 962 489 962 504 978 506 980 489 962 506 980 508 981 510 982 501 922 508 981 508 981 501 922 642 924 508 981 642 924 652 983 652 983 642 924 651 984 651 984 642 924 650 985 650 985 642 924 649 986 649 986 642 924 648 987 648 987 642 924 647 988 647 988 642 924 646 989 646 989 642 924 645 990 645 990 642 924 644 991 644 991 642 924 643 992 512 993 535 916 626 994 626 994 535 916 627 995 627 995 535 916 628 996 628 996 535 916 629 997 629 997 535 916 630 998 630 998 535 916 631 999 631 999 535 916 632 940 549 1000 634 1001 550 920 550 920 634 1001 635 1002 550 920 635 1002 636 1003 636 1003 637 1004 550 920 550 920 637 1004 638 1005 550 920 638 1005 639 1006 639 1006 640 1007 550 920 550 920 640 1007 641 923 652 983 653 960 508 981 508 981 653 960 489 962 657 946 658 1008 665 944 665 944 658 1008 659 1009 665 944 659 1009 660 1010 660 1010 661 1011 665 944 665 944 661 1011 662 1012 665 944 662 1012 663 1013 663 1013 664 1014 665 944 665 944 633 939 422 938 566 1015 668 1016 567 1017 567 1017 668 1016 669 1018 567 1017 669 1018 570 1019 570 1019 669 1018 670 1020 570 1019 670 1020 571 1021 571 1021 670 1020 572 1022 572 1022 670 1020 671 1023 572 1022 671 1023 573 1024 573 1024 671 1023 574 1025 574 1025 671 1023 672 1026 574 1025 672 1026 575 1027 575 1027 672 1026 576 1028 576 1028 672 1026 673 1029 576 1028 673 1029 577 1030 577 1030 673 1029 578 1031 578 1031 673 1029 674 1032 578 1031 674 1032 579 1033 579 1033 674 1032 675 1034 579 1033 675 1034 580 1035 580 1035 675 1034 676 1036 580 1035 676 1036 581 1037 581 1037 676 1036 677 1038 581 1037 677 1038 582 1039 668 1016 566 1015 667 1040 667 1040 566 1015 565 1041 667 1040 565 1041 666 1042 666 1042 565 1041 564 1043 549 1044 548 1045 634 1046 634 1046 548 1045 547 1047 634 1046 547 1047 546 1048 634 1046 546 1048 635 1049 635 1049 546 1048 545 1050 635 1049 545 1050 636 1051 636 1051 545 1050 544 1052 636 1051 544 1052 543 1053 636 1051 543 1053 637 1054 637 1054 543 1053 542 1055 637 1054 542 1055 541 1056 637 1054 541 1056 638 1057 638 1057 541 1056 540 1058 638 1057 540 1058 539 1059 638 1057 539 1059 639 1060 639 1060 539 1059 538 1061 639 1060 538 1061 640 1062 640 1062 538 1061 537 1063 640 1062 537 1063 641 1064 641 1064 537 1063 536 1065 47 1066 133 1067 24 1068 24 1068 133 1067 132 1069 24 1068 132 1069 25 1070 25 1070 132 1069 131 1071 25 1070 131 1071 26 1072 26 1072 131 1071 130 1073 26 1072 130 1073 27 1074 27 1074 130 1073 129 1075 27 1074 129 1075 28 1076 28 1076 129 1075 128 1077 28 1076 128 1077 29 1078 29 1078 128 1077 127 1079 29 1078 127 1079 677 1038 677 1038 127 1079 126 1080 677 1038 126 1080 125 1081 133 1067 47 1066 134 1082 134 1082 47 1066 46 1083 134 1082 46 1083 135 1084 135 1084 46 1083 45 1085 135 1084 45 1085 136 1086 136 1086 45 1085 44 1087 136 1086 44 1087 137 1088 137 1088 44 1087 43 1089 137 1088 43 1089 583 1090 583 1090 43 1089 559 1091 559 1091 43 1089 642 1092 559 1091 642 1092 641 1064 43 1089 42 1093 642 1092 642 1092 42 1093 41 1094 642 1092 41 1094 40 1095 40 1095 39 1096 642 1092 642 1092 39 1096 38 1097 642 1092 38 1097 37 1098 642 1092 37 1098 678 1099 678 1099 37 1098 36 1100 678 1099 36 1100 35 1101 35 1101 34 1102 678 1099 678 1099 34 1102 33 1103 678 1099 33 1103 32 1104 32 1104 31 1105 678 1099 678 1099 31 1105 30 1106 678 1099 30 1106 29 1078 121 1107 120 1108 582 1039 582 1039 120 1108 143 1109 582 1039 143 1109 142 1110 142 1110 141 1111 582 1039 582 1039 141 1111 140 1112 582 1039 140 1112 139 1113 582 1039 139 1113 583 1090 583 1090 139 1113 138 1114 583 1090 138 1114 137 1088 125 1081 124 1115 677 1038 677 1038 124 1115 123 1116 677 1038 123 1116 122 1117 677 1038 122 1117 582 1039 582 1039 122 1117 121 1107 536 1065 559 1091 641 1064 677 1038 678 1099 29 1078 564 1043 563 864 666 1042 666 1042 563 864 625 863 239 1118 325 1119 216 1120 216 1120 325 1119 324 1121 216 1120 324 1121 217 1122 217 1122 324 1121 323 1123 217 1122 323 1123 218 1124 218 1124 323 1123 322 1125 218 1124 322 1125 219 1126 219 1126 322 1125 321 1127 219 1126 321 1127 220 1128 220 1128 321 1127 320 1129 220 1128 320 1129 221 1130 221 1130 320 1129 319 1131 221 1130 319 1131 614 883 614 883 319 1131 679 1132 679 1132 319 1131 318 1133 679 1132 318 1133 317 1134 325 1119 239 1118 326 1135 326 1135 239 1118 238 1136 326 1135 238 1136 327 1137 327 1137 238 1136 237 1138 327 1137 237 1138 328 1139 328 1139 237 1138 236 1140 328 1139 236 1140 329 1141 329 1141 236 1140 235 1142 329 1141 235 1142 613 1143 613 1143 235 1142 234 1144 613 1143 234 1144 233 1145 613 1143 233 1145 592 884 592 884 233 1145 232 1146 592 884 232 1146 231 1147 231 1147 230 1148 592 884 592 884 230 1148 229 1149 592 884 229 1149 228 1150 228 1150 227 1151 592 884 592 884 227 1151 226 1152 592 884 226 1152 614 883 614 883 226 1152 225 1153 614 883 225 1153 224 1154 224 1154 223 1155 614 883 614 883 223 1155 222 1156 614 883 222 1156 221 1130 313 1157 312 1158 679 1132 679 1132 312 1158 335 1159 679 1132 335 1159 665 1160 665 1160 335 1159 334 1161 665 1160 334 1161 333 1162 333 1162 332 1163 665 1160 665 1160 332 1163 331 1164 665 1160 331 1164 330 1165 330 1165 329 1141 665 1160 665 1160 329 1141 526 1166 665 1160 526 1166 633 887 633 887 526 1166 525 885 317 1134 316 1167 679 1132 679 1132 316 1167 315 1168 679 1132 315 1168 314 1169 314 1169 313 1157 679 1132 613 1143 526 1166 329 1141 654 1170 680 1171 655 1172 655 1172 680 1171 681 1173 655 1172 681 1173 656 1174 656 1174 681 1173 682 1175 656 1174 682 1175 657 1176 657 1176 682 1175 683 1177 657 1176 683 1177 658 1178 658 1178 683 1177 684 1179 658 1178 684 1179 659 1180 659 1180 684 1179 685 1181 659 1180 685 1181 660 1182 660 1182 685 1181 686 1183 660 1182 686 1183 661 1184 661 1184 686 1183 687 1185 661 1184 687 1185 662 1186 662 1186 687 1185 688 1187 662 1186 688 1187 663 1188 663 1188 688 1187 689 1189 663 1188 689 1189 664 1190 664 1190 689 1189 690 1191 664 1190 690 1191 665 1160 665 1160 690 1191 679 1132 691 1192 680 1171 653 1193 653 1193 680 1171 654 1170 642 1092 678 1099 643 1194 643 1194 678 1099 692 1195 643 1194 692 1195 644 1196 644 1196 692 1195 693 1197 644 1196 693 1197 645 1198 645 1198 693 1197 694 1199 645 1198 694 1199 646 1200 646 1200 694 1199 695 1201 646 1200 695 1201 647 1202 647 1202 695 1201 696 1203 647 1202 696 1203 648 1204 648 1204 696 1203 697 1205 648 1204 697 1205 649 1206 649 1206 697 1205 698 1207 649 1206 698 1207 650 1208 650 1208 698 1207 699 1209 650 1208 699 1209 651 1210 651 1210 699 1209 700 1211 651 1210 700 1211 652 1212 652 1212 700 1211 701 1213 652 1212 701 1213 653 1193 653 1193 701 1213 691 1192 701 1214 678 1215 691 1216 691 1216 678 1215 677 1217 691 1216 677 1217 666 1218 666 1218 677 1217 667 1219 667 1219 677 1217 668 1220 668 1220 677 1217 669 1221 669 1221 677 1217 670 1222 670 1222 677 1217 671 1223 671 1223 677 1217 672 1224 672 1224 677 1217 673 1225 673 1225 677 1217 674 1226 674 1226 677 1217 675 1227 675 1227 677 1217 676 1228 701 1214 700 1229 678 1215 678 1215 700 1229 699 1230 678 1215 699 1230 698 1231 698 1231 697 1232 678 1215 678 1215 697 1232 696 1233 678 1215 696 1233 695 1234 695 1234 694 1235 678 1215 678 1215 694 1235 693 1236 678 1215 693 1236 692 1237 691 1216 666 1218 680 1238 680 1238 666 1218 625 1239 680 1238 625 1239 679 1240 679 1240 625 1239 614 1241 614 1241 625 1239 624 1242 614 1241 624 1242 623 1243 623 1243 622 1244 614 1241 614 1241 622 1244 621 1245 614 1241 621 1245 620 1246 620 1246 619 1247 614 1241 614 1241 619 1247 618 1248 614 1241 618 1248 617 1249 617 1249 616 1250 614 1241 614 1241 616 1250 615 1251 690 1252 689 1253 679 1240 679 1240 689 1253 688 1254 679 1240 688 1254 687 1255 687 1255 686 1256 679 1240 679 1240 686 1256 685 1257 679 1240 685 1257 684 1258 684 1258 683 1259 679 1240 679 1240 683 1259 682 1260 679 1240 682 1260 681 1261 681 1261 680 1238 679 1240</p>
        </triangles>
      </mesh>
    </geometry>
  </library_geometries>
  <library_visual_scenes>
    <visual_scene id="Scene" name="Scene">
      <node id="base_link-node" name="base_link" type="NODE">
        <instance_geometry url="#base_link-mesh">
          <bind_material>
            <technique_common>
              <instance_material symbol="mat_00_Body1__Plastic_-_Glossy__Black_" target="#mat_00_Body1__Plastic_-_Glossy__Black_"/>
            </technique_common>
          </bind_material>
        </instance_geometry>
      </node>
    </visual_scene>
  </library_visual_scenes>
  <scene>
    <instance_visual_scene url="#Scene"/>
  </scene>
</COLLADA>
